<?xml version="1.0" ?><svg style="enable-background:new 0 0 48 48;" version="1.1" viewBox="0 0 48 48" xml:space="preserve" xmlns="http://www.w3.org/2000/svg" xmlns:xlink="http://www.w3.org/1999/xlink">

<g id="Icons"><g><path d="M24.005,14.735c-3.77,0-6.81,3.05-6.81,6.81c0,0.14,0.01,0.28,0.0199,0.42    c0.0301,0.56,0.13,1.12,0.31,1.66c0.1701,0.53,0.4001,1.03,0.7101,1.5c0.02,0.03,0.21,0.3,0.5,0.74c0,0,0,0,0.01,0.01    c1.3,1.96,4.73,7.09,4.75,7.12c0.24,0.36,0.77,0.36,1.01,0c0.01-0.02,0.03-0.04,0.04-0.05c0.07-0.11,5.1099-7.66,5.27-7.89    c0.04-0.07,0.0899-0.14,0.13-0.21c0.2699-0.46,0.4699-0.95,0.61-1.46c0.1699-0.6,0.25-1.22,0.25-1.84    C30.805,17.785,27.755,14.735,24.005,14.735z M24.175,24.995c-1.5,0.09-2.79-1.05-2.89-2.55c-0.09-1.5,1.05-2.79,2.54-2.88    c1.5-0.1,2.8,1.04,2.89,2.54S25.675,24.895,24.175,24.995z" style="fill:#F43734;"/>
<path d="M18.5529,19.1404c0,0,1.5527-3.7647,5.4471-3.4889c0,0,1.1515-0.0063,1.1512,0.5481    C25.1508,16.854,24,16.6559,24,16.6559S20.6084,16.2441,18.5529,19.1404z" style="fill:#FC6060;"/></g></g></svg>