<?xml version="1.0" standalone="no"?><!DOCTYPE svg PUBLIC "-//W3C//DTD SVG 1.1//EN" "http://www.w3.org/Graphics/SVG/1.1/DTD/svg11.dtd"><svg xmlns:xlink="http://www.w3.org/1999/xlink" viewBox="0 0 600 400" height="400" width="600" xmlns="http://www.w3.org/2000/svg" style="font-family:&quot;lucida grande&quot;, &quot;lucida sans unicode&quot;, arial, helvetica, sans-serif;font-size:12px;" class="highcharts-root" version="1.1"><desc>Created with Highcharts 5.0.12</desc><defs><clipPath id="highcharts-wjoohx5-8"><rect fill="none" height="301" width="514" y="0" x="0"></rect></clipPath><linearGradient id="highcharts-wjoohx5-9" y2="1" x2="0" y1="0" x1="0"><stop stop-opacity="1" stop-color="#7cb5ec" offset="0"></stop><stop stop-opacity="0" stop-color="rgb(124,181,236)" offset="1"></stop></linearGradient></defs><rect ry="0" rx="0" height="400" width="600" y="0" x="0" class="highcharts-background" fill="#ffffff"></rect><rect height="301" width="514" y="62" x="76" class="highcharts-plot-background" fill="none"></rect><g class="highcharts-grid highcharts-xaxis-grid "><path opacity="1" d="M 99.5 62 L 99.5 363" class="highcharts-grid-line" fill="none"></path><path opacity="1" d="M 222.5 62 L 222.5 363" class="highcharts-grid-line" fill="none"></path><path opacity="1" d="M 342.5 62 L 342.5 363" class="highcharts-grid-line" fill="none"></path><path opacity="1" d="M 464.5 62 L 464.5 363" class="highcharts-grid-line" fill="none"></path><path opacity="1" d="M 585.5 62 L 585.5 363" class="highcharts-grid-line" fill="none"></path></g><g class="highcharts-grid highcharts-yaxis-grid "><path opacity="1" d="M 76 363.5 L 590 363.5" class="highcharts-grid-line" stroke-width="1" stroke="#e6e6e6" fill="none"></path><path opacity="1" d="M 76 313.5 L 590 313.5" class="highcharts-grid-line" stroke-width="1" stroke="#e6e6e6" fill="none"></path><path opacity="1" d="M 76 263.5 L 590 263.5" class="highcharts-grid-line" stroke-width="1" stroke="#e6e6e6" fill="none"></path><path opacity="1" d="M 76 213.5 L 590 213.5" class="highcharts-grid-line" stroke-width="1" stroke="#e6e6e6" fill="none"></path><path opacity="1" d="M 76 162.5 L 590 162.5" class="highcharts-grid-line" stroke-width="1" stroke="#e6e6e6" fill="none"></path><path opacity="1" d="M 76 112.5 L 590 112.5" class="highcharts-grid-line" stroke-width="1" stroke="#e6e6e6" fill="none"></path><path opacity="1" d="M 76 61.5 L 590 61.5" class="highcharts-grid-line" stroke-width="1" stroke="#e6e6e6" fill="none"></path></g><rect height="301" width="514" y="62" x="76" class="highcharts-plot-border" fill="none"></rect><g class="highcharts-axis highcharts-xaxis "><path opacity="1" d="M 99.5 363 L 99.5 373" stroke-width="1" stroke="#ccd6eb" class="highcharts-tick" fill="none"></path><path opacity="1" d="M 222.5 363 L 222.5 373" stroke-width="1" stroke="#ccd6eb" class="highcharts-tick" fill="none"></path><path opacity="1" d="M 342.5 363 L 342.5 373" stroke-width="1" stroke="#ccd6eb" class="highcharts-tick" fill="none"></path><path opacity="1" d="M 464.5 363 L 464.5 373" stroke-width="1" stroke="#ccd6eb" class="highcharts-tick" fill="none"></path><path opacity="1" d="M 585.5 363 L 585.5 373" stroke-width="1" stroke="#ccd6eb" class="highcharts-tick" fill="none"></path><path d="M 76 363.5 L 590 363.5" stroke-width="1" stroke="#ccd6eb" class="highcharts-axis-line" fill="none"></path></g><g class="highcharts-axis highcharts-yaxis "><text y="212.5" style="color:#666666;fill:#666666;" class="highcharts-axis-title" transform="translate(0,0) rotate(270 24.683332443237305 212.5)" text-anchor="middle" x="24.683332443237305"><tspan>Exchange rate</tspan></text><path d="M 76 62 L 76 363" class="highcharts-axis-line" fill="none"></path></g><g class="highcharts-series-group"><g clip-path="url(#highcharts-wjoohx5-8)" transform="translate(76,62) scale(1 1)" class="highcharts-series highcharts-series-0 highcharts-area-series highcharts-color-0 "><path class="highcharts-area" d="M 5.0392156862745 231.26833333333335 L 5.7040198665218 235.98399999999992 L 6.3688240467691 236.28500000000003 L 7.0336282270164 236.98733333333325 L 7.6984324072637 245.91699999999994 L 8.363236587511 244.61266666666666 L 9.6928449480056 243.40866666666668 L 10.357649128253 246.519 L 11.0224533085 249.82999999999996 L 11.687257488747 251.03399999999993 L 12.352061668995 253.14099999999993 L 13.016865849242 251.636 L 14.346474209737 252.1376666666666 L 15.011278389984 252.83999999999997 L 15.676082570231 254.2446666666666 L 16.340886750479 248.72633333333332 L 17.005690930726 244.412 L 17.670495110973 238.69299999999998 L 19.000103471468 237.78999999999996 L 19.664907651715 238.4923333333333 L 20.329711831962 236.38533333333334 L 20.99451601221 232.27166666666668 L 21.659320192457 233.6763333333333 L 22.324124372704 232.0709999999999 L 23.653732733199 232.0709999999999 L 24.318536913446 235.382 L 24.983341093693 230.265 L 25.648145273941 232.0709999999999 L 26.312949454188 226.35199999999998 L 26.977753634435 221.43566666666663 L 28.30736199493 220.332 L 28.972166175177 223.74333333333328 L 29.636970355424 218.32533333333333 L 30.301774535672 230.265 L 30.966578715919 237.28833333333336 L 31.631382896166 235.58266666666663 L 32.960991256661 235.18133333333336 L 33.625795436908 235.2816666666667 L 34.290599617156 241.0006666666666 L 34.955403797403 238.8936666666666 L 35.62020797765 237.99066666666658 L 36.285012157897 239.89699999999993 L 37.614620518392 240.90033333333326 L 38.279424698639 242.40533333333335 L 38.944228878887 244.61266666666666 L 39.609033059134 243.30833333333334 L 40.273837239381 247.72299999999996 L 40.938641419629 247.8233333333333 L 42.268249780123 248.2246666666666 L 42.93305396037 246.81999999999996 L 43.597858140618 246.81999999999996 L 44.262662320865 249.02733333333327 L 44.927466501112 243.70966666666664 L 45.59227068136 247.92366666666663 L 46.921879041854 247.62266666666665 L 47.586683222102 246.61933333333332 L 48.251487402349 249.32833333333335 L 48.916291582596 251.03399999999993 L 49.581095762843 253.54233333333332 L 50.245899943091 251.43533333333335 L 51.575508303585 251.13433333333327 L 52.240312483833 248.92699999999996 L 52.90511666408 246.81999999999996 L 53.569920844327 246.519 L 54.234725024574 251.636 L 54.899529204822 250.63266666666664 L 56.229137565316 250.53233333333333 L 56.893941745564 250.93366666666662 L 57.558745925811 255.549 L 58.223550106058 252.1376666666666 L 58.888354286306 252.1376666666666 L 59.553158466553 253.64266666666666 L 60.882766827047 253.743 L 61.547571007295 252.83999999999997 L 62.212375187542 254.14433333333326 L 62.877179367789 251.13433333333327 L 63.541983548037 245.61599999999999 L 64.206787728284 244.61266666666666 L 65.536396088779 243.60933333333332 L 66.201200269026 242.7063333333333 L 66.866004449273 241.50233333333333 L 67.53080862952 243.70966666666664 L 68.195612809768 238.59266666666664 L 68.860416990015 242.00399999999993 L 70.19002535051 241.70299999999997 L 70.854829530757 246.41866666666667 L 71.519633711004 247.12099999999992 L 72.184437891251 249.6293333333333 L 72.849242071499 248.92699999999996 L 73.514046251746 248.62599999999998 L 74.843654612241 252.23799999999991 L 75.508458792488 250.83333333333331 L 76.173262972735 252.23799999999991 L 76.838067152983 261.2679999999999 L 77.50287133323 261.76966666666664 L 78.167675513477 261.4686666666667 L 79.497283873972 261.9703333333333 L 80.162088054219 259.763 L 80.826892234466 258.65933333333334 L 81.491696414714 261.569 L 82.156500594961 259.56233333333336 L 82.821304775208 261.2679999999999 L 84.150913135703 259.8633333333333 L 84.81571731595 261.569 L 85.480521496197 261.569 L 86.145325676445 264.3783333333333 L 86.810129856692 266.58566666666667 L 87.474934036939 263.2746666666666 L 88.804542397434 263.87666666666667 L 89.469346577681 264.6793333333333 L 90.134150757928 264.0773333333333 L 90.798954938176 261.569 L 91.463759118423 261.1676666666666 L 92.12856329867 262.37166666666656 L 93.458171659165 263.17433333333327 L 94.122975839412 263.47533333333325 L 94.78778001966 261.3683333333332 L 95.452584199907 261.9703333333333 L 96.117388380154 269.696 L 96.782192560401 270.19766666666663 L 98.111800920896 269.99699999999996 L 98.776605101143 270.09733333333327 L 99.441409281391 275.3146666666666 L 100.10621346164 275.114 L 100.77101764189 276.2176666666666 L 101.43582182213 276.5186666666666 L 102.76543018263 276.5186666666666 L 103.43023436287 275.4149999999999 L 104.09503854312 273.40833333333325 L 104.75984272337 272.90666666666664 L 105.42464690362 264.7796666666666 L 106.08945108386 259.36166666666657 L 107.41905944436 259.763 L 108.08386362461 260.967 L 108.74866780485 258.75966666666665 L 109.4134719851 260.8666666666666 L 110.07827616535 255.64933333333332 L 110.74308034559 252.94033333333329 L 112.07268870609 251.636 L 112.73749288634 254.84666666666664 L 113.40229706658 256.6526666666667 L 114.06710124683 259.36166666666657 L 114.73190542708 257.95699999999994 L 115.39670960733 259.8633333333333 L 116.72631796782 259.16099999999994 L 117.39112214807 260.3649999999999 L 118.05592632831 262.27133333333325 L 118.72073050856 256.753 L 119.38553468881 259.06066666666663 L 120.05033886906 263.2746666666666 L 121.37994722955 262.97366666666665 L 122.0447514098 260.967 L 122.70955559005 263.977 L 123.37435977029 264.3783333333333 L 124.03916395054 265.8833333333333 L 124.70396813079 265.0806666666666 L 126.03357649128 264.6793333333333 L 126.69838067153 262.37166666666656 L 127.36318485178 264.9803333333333 L 128.02798903202 265.1809999999999 L 128.69279321227 269.19433333333325 L 129.35759739252 271.20099999999996 L 130.68720575301 271.3013333333333 L 131.35200993326 273.00699999999995 L 132.01681411351 274.21099999999996 L 132.68161829376 275.5153333333333 L 133.346422474 273.90999999999997 L 134.01122665425 273.30799999999994 L 135.34083501474 273.1073333333333 L 136.00563919499 274.21099999999996 L 136.67044337524 274.61233333333337 L 137.33524755549 270.19766666666663 L 138.00005173573 268.9936666666666 L 138.66485591598 269.3949999999999 L 139.99446427648 269.79633333333334 L 140.65926845672 270.79966666666667 L 141.32407263697 270.09733333333327 L 141.98887681722 269.89666666666665 L 142.65368099746 270.49866666666657 L 143.31848517771 273.2076666666666 L 144.64809353821 273.70933333333335 L 145.31289771845 276.5186666666666 L 145.9777018987 273.40833333333325 L 146.64250607895 273.80966666666666 L 147.3073102592 269.49533333333324 L 147.97211443944 264.9803333333333 L 149.30172279994 265.3816666666666 L 149.96652698019 267.0873333333333 L 150.63133116043 266.38499999999993 L 151.29613534068 264.2779999999999 L 151.96093952093 265.98366666666664 L 152.62574370117 269.2946666666666 L 153.95535206167 269.3949999999999 L 154.62015624192 269.3949999999999 L 155.28496042216 269.89666666666665 L 155.94976460241 265.8833333333333 L 156.61456878266 266.78633333333335 L 157.27937296291 262.37166666666656 L 158.6089813234 261.6693333333333 L 159.27378550365 262.97366666666665 L 159.93858968389 263.5756666666667 L 160.60339386414 262.77299999999997 L 161.26819804439 270.79966666666667 L 161.93300222464 269.79633333333334 L 163.26261058513 270.29799999999994 L 163.92741476538 269.49533333333324 L 164.59221894563 269.2946666666666 L 165.25702312587 268.9936666666666 L 165.92182730612 263.17433333333327 L 166.58663148637 259.36166666666657 L 167.91623984686 259.462 L 168.58104402711 261.569 L 169.24584820736 261.1676666666666 L 169.9106523876 261.9703333333333 L 170.57545656785 265.0806666666666 L 171.2402607481 267.4886666666666 L 172.56986910859 266.58566666666667 L 173.23467328884 268.0906666666666 L 173.89947746909 267.6893333333333 L 174.56428164934 265.28133333333324 L 175.22908582958 269.99699999999996 L 175.89389000983 270.49866666666657 L 177.22349837032 270.9 L 177.88830255057 271.4016666666666 L 178.55310673082 274.11066666666665 L 179.21791091107 272.8063333333333 L 179.88271509131 272.0036666666666 L 180.54751927156 273.1073333333333 L 181.87712763206 272.90666666666664 L 182.5419318123 272.90666666666664 L 183.20673599255 273.40833333333325 L 183.8715401728 270.29799999999994 L 184.53634435304 271.4016666666666 L 185.20114853329 276.41833333333324 L 186.53075689379 275.0136666666666 L 187.19556107403 272.90666666666664 L 187.86036525428 273.30799999999994 L 188.52516943453 272.706 L 189.18997361478 279.4283333333333 L 189.85477779502 280.33133333333325 L 191.18438615552 280.33133333333325 L 191.84919033576 280.23099999999994 L 192.51399451601 279.3279999999999 L 193.17879869626 281.736 L 193.84360287651 279.93 L 194.50840705675 282.2376666666666 L 195.83801541725 282.1373333333333 L 196.5028195975 282.6389999999999 L 197.16762377774 283.24099999999993 L 197.83242795799 278.02366666666666 L 198.49723213824 275.114 L 199.16203631849 276.017 L 200.49164467898 276.2176666666666 L 201.15644885923 278.3246666666666 L 201.82125303947 277.72266666666667 L 202.48605721972 275.4149999999999 L 203.15086139997 273.1073333333333 L 203.81566558022 273.80966666666666 L 205.14527394071 273.70933333333335 L 205.81007812096 274.813 L 206.47488230121 275.91666666666663 L 207.13968648145 274.51199999999994 L 207.8044906617 272.0036666666666 L 208.46929484195 271.1006666666666 L 209.79890320244 271.1006666666666 L 210.46370738269 273.1073333333333 L 211.12851156294 276.1173333333333 L 211.79331574318 279.1273333333333 L 212.45811992343 280.93333333333334 L 213.12292410368 280.73266666666666 L 214.45253246417 278.726 L 215.11733664442 277.32133333333326 L 215.78214082467 277.0203333333333 L 216.44694500491 277.12066666666664 L 217.11174918516 277.12066666666664 L 217.77655336541 277.12066666666664 L 219.1061617259 277.0203333333333 L 219.77096590615 275.91666666666663 L 220.4357700864 276.5186666666666 L 221.10057426665 277.12066666666664 L 221.76537844689 278.02366666666666 L 222.43018262714 278.02366666666666 L 223.75979098764 278.3246666666666 L 224.42459516788 278.9266666666667 L 225.08939934813 276.91999999999996 L 225.75420352838 279.82966666666664 L 226.41900770862 279.93 L 227.08381188887 280.0303333333333 L 228.41342024937 280.0303333333333 L 229.07822442961 280.23099999999994 L 229.74302860986 282.94 L 230.40783279011 282.1373333333333 L 231.07263697036 278.42499999999995 L 231.7374411506 274.11066666666665 L 233.0670495111 274.21099999999996 L 233.73185369134 274.0103333333333 L 234.39665787159 271.20099999999996 L 235.06146205184 271.803 L 235.72626623209 271.5019999999999 L 236.39107041233 270.69933333333336 L 237.72067877283 271.1006666666666 L 238.38548295308 271.4016666666666 L 239.05028713332 271.1006666666666 L 239.71509131357 270.19766666666663 L 240.37989549382 268.59233333333333 L 241.04469967406 267.38833333333326 L 242.37430803456 267.0873333333333 L 243.03911221481 267.9903333333333 L 243.70391639505 267.38833333333326 L 244.3687205753 265.0806666666666 L 245.03352475555 265.783 L 245.6983289358 267.1876666666666 L 247.02793729629 267.0873333333333 L 247.69274147654 265.3816666666666 L 248.35754565679 267.0873333333333 L 249.02234983703 265.58233333333334 L 249.68715401728 268.793 L 250.35195819753 267.89 L 251.68156655802 268.1909999999999 L 252.34637073827 265.28133333333324 L 253.01117491852 262.77299999999997 L 253.67597909876 261.9703333333333 L 254.34078327901 262.97366666666665 L 255.00558745926 262.47200000000004 L 256.33519581975 262.0706666666666 L 257 264.1776666666666 L 257.66480418025 262.67266666666666 L 258.32960836049 265.28133333333324 L 258.99441254074 265.98366666666664 L 259.65921672099 265.58233333333334 L 260.98882508148 265.1809999999999 L 261.65362926173 265.8833333333333 L 262.31843344198 265.8833333333333 L 262.98323762223 267.1876666666666 L 263.64804180247 266.18433333333326 L 264.31284598272 268.1909999999999 L 265.64245434321 267.89 L 266.30725852346 270.49866666666657 L 266.97206270371 269.89666666666665 L 267.63686688396 268.8933333333333 L 268.3016710642 266.18433333333326 L 268.96647524445 265.28133333333324 L 270.29608360495 264.88 L 270.96088778519 265.8833333333333 L 271.62569196544 266.28466666666657 L 272.29049614569 267.9903333333333 L 272.95530032594 266.08399999999995 L 273.62010450618 265.98366666666664 L 274.94971286668 265.68266666666665 L 275.61451704692 266.686 L 276.27932122717 263.977 L 276.94412540742 261.569 L 277.60892958767 261.6693333333333 L 278.27373376791 261.4686666666667 L 279.60334212841 261.87 L 280.26814630866 261.3683333333332 L 280.9329504889 258.1576666666666 L 281.59775466915 258.1576666666666 L 282.2625588494 258.0573333333333 L 282.92736302964 256.25133333333326 L 284.25697139014 256.15099999999995 L 284.92177557039 256.8533333333333 L 285.58657975063 255.04733333333328 L 286.25138393088 254.44533333333334 L 286.91618811113 253.94366666666662 L 287.58099229138 256.25133333333326 L 288.91060065187 256.15099999999995 L 289.57540483212 255.84999999999997 L 290.24020901236 253.14099999999993 L 290.90501319261 253.64266666666666 L 291.56981737286 252.539 L 292.23462155311 255.1476666666666 L 293.5642299136 254.84666666666664 L 294.22903409385 253.8433333333333 L 294.8938382741 252.83999999999997 L 295.55864245434 252.63933333333333 L 296.22344663459 252.63933333333333 L 296.88825081484 254.54566666666668 L 298.21785917533 253.94366666666662 L 298.88266335558 252.539 L 299.54746753583 250.0306666666666 L 300.21227171607 246.71966666666663 L 300.87707589632 247.92366666666663 L 301.54188007657 245.7163333333333 L 302.87148843706 243.1076666666666 L 303.53629261731 242.80666666666662 L 304.20109679756 241.50233333333333 L 304.86590097781 242.80666666666662 L 305.53070515805 242.305 L 306.1955093383 239.39533333333333 L 307.52511769879 238.99399999999994 L 308.18992187904 238.99399999999994 L 308.85472605929 239.39533333333333 L 309.51953023954 240.39866666666666 L 310.18433441978 228.25833333333333 L 310.84913860003 228.5593333333333 L 312.17874696053 228.65966666666662 L 312.84355114077 225.44899999999998 L 313.50835532102 227.7566666666666 L 314.17315950127 226.55266666666665 L 314.83796368151 227.15466666666669 L 315.50276786176 229.46233333333333 L 316.83237622226 229.06099999999992 L 317.4971804025 228.0576666666666 L 318.16198458275 229.16133333333335 L 318.826788763 223.54266666666663 L 319.49159294325 226.85366666666658 L 320.15639712349 221.33533333333332 L 321.48600548399 221.93733333333324 L 322.15080966424 222.5393333333333 L 322.81561384448 222.33866666666665 L 323.48041802473 218.32533333333333 L 324.14522220498 216.41899999999998 L 324.81002638522 212.30533333333332 L 326.13963474572 211.60299999999995 L 326.80443892597 212.40566666666663 L 327.46924310621 209.09466666666668 L 328.13404728646 208.49266666666662 L 328.79885146671 211.4023333333333 L 329.46365564696 201.77033333333327 L 330.79326400745 201.46933333333328 L 331.4580681877 210.39899999999997 L 332.12287236794 211.4023333333333 L 332.78767654819 215.41566666666665 L 333.45248072844 212.7066666666666 L 334.11728490869 208.79366666666658 L 335.44689326918 209.49599999999995 L 336.11169744943 216.5193333333333 L 336.77650162968 210.69999999999993 L 337.44130580992 221.73666666666662 L 338.10610999017 220.13133333333334 L 338.77091417042 217.22166666666666 L 340.10052253091 216.31866666666667 L 340.76532671116 219.42899999999997 L 341.43013089141 214.31199999999998 L 342.09493507165 210.19833333333332 L 342.7597392519 209.99766666666667 L 343.42454343215 211.4023333333333 L 344.75415179264 211.80366666666657 L 345.41895597289 213.20833333333331 L 346.08376015314 215.41566666666665 L 346.74856433339 209.09466666666668 L 347.41336851363 207.79033333333325 L 348.07817269388 202.272 L 349.40778105437 200.76699999999994 L 350.07258523462 199.46266666666662 L 350.73738941487 203.57633333333328 L 351.40219359512 199.7636666666667 L 352.06699777536 192.53966666666662 L 352.73180195561 197.65666666666658 L 354.06141031611 198.1583333333333 L 354.72621449635 195.5496666666666 L 355.3910186766 199.06133333333332 L 356.05582285685 196.65333333333325 L 356.72062703709 199.16166666666663 L 357.38543121734 202.17166666666665 L 358.71503957784 201.8706666666667 L 359.37984375808 197.45599999999996 L 360.04464793833 203.07466666666664 L 360.70945211858 204.17833333333334 L 361.37425629883 203.17499999999998 L 362.03906047907 193.54299999999995 L 363.36866883957 192.43933333333328 L 364.03347301981 196.95433333333335 L 364.69827720006 199.06133333333332 L 365.36308138031 201.06799999999998 L 366.02788556056 198.4593333333333 L 366.6926897408 197.55633333333327 L 368.0222981013 196.65333333333325 L 368.68710228155 198.6599999999999 L 369.35190646179 193.14166666666665 L 370.01671064204 188.32566666666662 L 370.68151482229 192.84066666666666 L 371.34631900254 186.72033333333337 L 372.67592736303 187.12166666666664 L 373.34073154328 188.72700000000003 L 374.00553572352 192.53966666666662 L 374.67033990377 197.2553333333333 L 375.33514408402 194.9476666666667 L 375.99994826427 198.25866666666664 L 377.32955662476 198.25866666666664 L 377.99436080501 196.65333333333325 L 378.65916498526 201.36899999999997 L 379.3239691655 190.4326666666666 L 379.98877334575 186.72033333333337 L 380.653577526 182.90766666666667 L 381.98318588649 182.60666666666668 L 382.64799006674 183.00799999999998 L 383.31279424699 179.09499999999997 L 383.97759842723 180.60000000000002 L 384.64240260748 182.40599999999995 L 385.30720678773 179.29566666666662 L 386.63681514822 178.79399999999998 L 387.30161932847 177.69033333333334 L 387.96642350872 178.09166666666664 L 388.63122768896 173.97799999999998 L 389.29603186921 174.37933333333325 L 389.96083604946 167.45633333333336 L 391.29044440995 163.44300000000004 L 391.9552485902 162.54000000000002 L 392.62005277045 159.4296666666667 L 393.2848569507 155.81766666666664 L 393.94966113094 152.50666666666666 L 394.61446531119 156.0183333333333 L 395.94407367169 158.02499999999995 L 396.60887785193 155.41633333333334 L 397.27368203218 151.0016666666666 L 397.93848621243 152.30600000000004 L 398.60329039267 140.66733333333332 L 399.26809457292 136.15233333333336 L 400.59770293342 135.65066666666664 L 401.26250711366 138.76099999999997 L 401.92731129391 134.6473333333333 L 402.59211547416 139.16233333333338 L 403.25691965441 120.60066666666663 L 403.92172383465 108.15933333333334 L 405.25133219515 101.33666666666664 L 405.91613637539 110.5673333333333 L 406.58094055564 121.7043333333333 L 407.24574473589 114.4803333333333 L 407.91054891614 116.98866666666669 L 408.57535309638 114.4803333333333 L 409.90496145688 116.08566666666667 L 410.56976563713 118.69433333333328 L 411.23456981737 129.42999999999998 L 411.89937399762 119.09566666666669 L 412.56417817787 129.12900000000002 L 413.22898235811 116.68766666666662 L 414.55859071861 116.48699999999997 L 415.22339489886 117.28966666666665 L 415.8881990791 117.08900000000003 L 416.55300325935 118.09233333333336 L 417.2178074396 123.41 L 417.88261161985 122.10566666666668 L 419.21221998034 123.0086666666667 L 419.87702416059 119.6976666666666 L 420.54182834084 124.21266666666668 L 421.20663252108 123.0086666666667 L 421.87143670133 120.60066666666663 L 422.53624088158 121.7043333333333 L 423.86584924207 121.7043333333333 L 424.53065342232 117.99200000000002 L 425.19545760257 118.59399999999997 L 425.86026178281 120.29966666666667 L 426.52506596306 107.25633333333332 L 427.18987014331 107.156 L 428.5194785038 104.34666666666664 L 429.18428268405 106.25299999999999 L 429.8490868643 105.55066666666661 L 430.51389104454 97.7246666666667 L 431.17869522479 93.71133333333336 L 431.84349940504 78.05933333333331 L 433.17310776553 78.15966666666662 L 433.83791194578 78.862 L 434.50271612603 65.51766666666668 L 435.16752030628 51.97266666666664 L 435.83232448652 59.89899999999997 L 436.49712866677 47.357333333333344 L 437.82673702726 46.053000000000054 L 438.49154120751 53.9793333333333 L 439.15634538776 56.68833333333333 L 439.82114956801 79.96566666666666 L 440.48595374825 62.10633333333328 L 441.1507579285 76.15299999999996 L 442.480366289 76.55433333333337 L 443.14517046924 86.78833333333336 L 443.80997464949 85.08266666666665 L 444.47477882974 88.89533333333335 L 445.13958300998 81.47066666666672 L 445.80438719023 81.87200000000001 L 447.13399555073 81.47066666666672 L 447.79879973097 77.1563333333333 L 448.46360391122 68.32700000000006 L 449.12840809147 71.13633333333328 L 449.79321227172 81.47066666666672 L 450.45801645196 89.39699999999996 L 451.78762481246 91.20299999999997 L 452.45242899271 84.882 L 453.11723317295 75.65133333333335 L 453.7820373532 72.64133333333336 L 454.44684153345 62.00599999999997 L 455.11164571369 57.08966666666663 L 456.44125407419 57.59133333333335 L 457.10605825444 53.87899999999996 L 457.77086243468 61.604666666666674 L 458.43566661493 64.51433333333335 L 459.10047079518 70.93566666666666 L 459.76527497543 74.84866666666667 L 461.09488333592 75.14966666666663 L 461.75968751617 69.02933333333331 L 462.42449169641 68.72833333333332 L 463.08929587666 67.92566666666664 L 463.75410005691 76.65466666666669 L 464.41890423716 80.66800000000003 L 465.74851259765 80.16633333333331 L 466.4133167779 81.87200000000001 L 467.07812095815 89.69800000000004 L 467.74292513839 102.03900000000002 L 468.40772931864 109.46366666666663 L 469.07253349889 107.55733333333328 L 470.40214185938 106.25299999999999 L 471.06694603963 103.14266666666666 L 471.73175021988 106.3533333333333 L 472.39655440012 119.5973333333333 L 473.06135858037 112.77466666666672 L 473.72616276062 107.85833333333338 L 475.05577112111 106.95533333333336 L 475.72057530136 103.94533333333334 L 476.38537948161 108.66099999999994 L 477.05018366186 119.89833333333337 L 477.7149878421 124.01200000000003 L 478.37979202235 127.22266666666667 L 479.70940038284 126.72099999999995 L 480.37420456309 116.5873333333333 L 481.03900874334 103.44366666666662 L 481.70381292359 98.92866666666669 L 482.36861710383 100.43366666666662 L 483.03342128408 92.70800000000003 L 484.36302964458 90.5006666666666 L 485.02783382482 89.29666666666662 L 485.69263800507 80.66800000000003 L 486.35744218532 83.27666666666661 L 487.02224636556 86.989 L 487.68705054581 90.19966666666664 L 489.01665890631 87.69133333333338 L 489.68146308655 85.18299999999996 L 490.3462672668 103.84500000000003 L 491.01107144705 113.27633333333333 L 491.6758756273 110.5673333333333 L 492.34067980754 100.43366666666662 L 493.67028816804 99.93200000000002 L 494.33509234828 114.68099999999995 L 494.99989652853 114.17933333333335 L 495.66470070878 117.4903333333333 L 496.32950488903 112.17266666666666 L 496.99430906927 113.07566666666668 L 498.32391742977 109.06233333333336 L 498.98872161002 114.17933333333335 L 499.65352579026 111.26966666666667 L 500.31832997051 118.293 L 500.98313415076 120.19933333333333 L 501.64793833101 119.5973333333333 L 502.9775466915 121.00200000000004 L 503.64235087175 118.59399999999997 L 504.30715505199 105.14933333333332 L 504.97195923224 107.95866666666669 L 505.63676341249 107.85833333333338 L 506.30156759274 104.84833333333336 L 507.63117595323 88.99566666666666 L 508.29598013348 110.36666666666665 L 508.96078431373 105.34999999999997 L 508.96078431373 301 L 508.29598013348 301 L 507.63117595323 301 L 506.30156759274 301 L 505.63676341249 301 L 504.97195923224 301 L 504.30715505199 301 L 503.64235087175 301 L 502.9775466915 301 L 501.64793833101 301 L 500.98313415076 301 L 500.31832997051 301 L 499.65352579026 301 L 498.98872161002 301 L 498.32391742977 301 L 496.99430906927 301 L 496.32950488903 301 L 495.66470070878 301 L 494.99989652853 301 L 494.33509234828 301 L 493.67028816804 301 L 492.34067980754 301 L 491.6758756273 301 L 491.01107144705 301 L 490.3462672668 301 L 489.68146308655 301 L 489.01665890631 301 L 487.68705054581 301 L 487.02224636556 301 L 486.35744218532 301 L 485.69263800507 301 L 485.02783382482 301 L 484.36302964458 301 L 483.03342128408 301 L 482.36861710383 301 L 481.70381292359 301 L 481.03900874334 301 L 480.37420456309 301 L 479.70940038284 301 L 478.37979202235 301 L 477.7149878421 301 L 477.05018366186 301 L 476.38537948161 301 L 475.72057530136 301 L 475.05577112111 301 L 473.72616276062 301 L 473.06135858037 301 L 472.39655440012 301 L 471.73175021988 301 L 471.06694603963 301 L 470.40214185938 301 L 469.07253349889 301 L 468.40772931864 301 L 467.74292513839 301 L 467.07812095815 301 L 466.4133167779 301 L 465.74851259765 301 L 464.41890423716 301 L 463.75410005691 301 L 463.08929587666 301 L 462.42449169641 301 L 461.75968751617 301 L 461.09488333592 301 L 459.76527497543 301 L 459.10047079518 301 L 458.43566661493 301 L 457.77086243468 301 L 457.10605825444 301 L 456.44125407419 301 L 455.11164571369 301 L 454.44684153345 301 L 453.7820373532 301 L 453.11723317295 301 L 452.45242899271 301 L 451.78762481246 301 L 450.45801645196 301 L 449.79321227172 301 L 449.12840809147 301 L 448.46360391122 301 L 447.79879973097 301 L 447.13399555073 301 L 445.80438719023 301 L 445.13958300998 301 L 444.47477882974 301 L 443.80997464949 301 L 443.14517046924 301 L 442.480366289 301 L 441.1507579285 301 L 440.48595374825 301 L 439.82114956801 301 L 439.15634538776 301 L 438.49154120751 301 L 437.82673702726 301 L 436.49712866677 301 L 435.83232448652 301 L 435.16752030628 301 L 434.50271612603 301 L 433.83791194578 301 L 433.17310776553 301 L 431.84349940504 301 L 431.17869522479 301 L 430.51389104454 301 L 429.8490868643 301 L 429.18428268405 301 L 428.5194785038 301 L 427.18987014331 301 L 426.52506596306 301 L 425.86026178281 301 L 425.19545760257 301 L 424.53065342232 301 L 423.86584924207 301 L 422.53624088158 301 L 421.87143670133 301 L 421.20663252108 301 L 420.54182834084 301 L 419.87702416059 301 L 419.21221998034 301 L 417.88261161985 301 L 417.2178074396 301 L 416.55300325935 301 L 415.8881990791 301 L 415.22339489886 301 L 414.55859071861 301 L 413.22898235811 301 L 412.56417817787 301 L 411.89937399762 301 L 411.23456981737 301 L 410.56976563713 301 L 409.90496145688 301 L 408.57535309638 301 L 407.91054891614 301 L 407.24574473589 301 L 406.58094055564 301 L 405.91613637539 301 L 405.25133219515 301 L 403.92172383465 301 L 403.25691965441 301 L 402.59211547416 301 L 401.92731129391 301 L 401.26250711366 301 L 400.59770293342 301 L 399.26809457292 301 L 398.60329039267 301 L 397.93848621243 301 L 397.27368203218 301 L 396.60887785193 301 L 395.94407367169 301 L 394.61446531119 301 L 393.94966113094 301 L 393.2848569507 301 L 392.62005277045 301 L 391.9552485902 301 L 391.29044440995 301 L 389.96083604946 301 L 389.29603186921 301 L 388.63122768896 301 L 387.96642350872 301 L 387.30161932847 301 L 386.63681514822 301 L 385.30720678773 301 L 384.64240260748 301 L 383.97759842723 301 L 383.31279424699 301 L 382.64799006674 301 L 381.98318588649 301 L 380.653577526 301 L 379.98877334575 301 L 379.3239691655 301 L 378.65916498526 301 L 377.99436080501 301 L 377.32955662476 301 L 375.99994826427 301 L 375.33514408402 301 L 374.67033990377 301 L 374.00553572352 301 L 373.34073154328 301 L 372.67592736303 301 L 371.34631900254 301 L 370.68151482229 301 L 370.01671064204 301 L 369.35190646179 301 L 368.68710228155 301 L 368.0222981013 301 L 366.6926897408 301 L 366.02788556056 301 L 365.36308138031 301 L 364.69827720006 301 L 364.03347301981 301 L 363.36866883957 301 L 362.03906047907 301 L 361.37425629883 301 L 360.70945211858 301 L 360.04464793833 301 L 359.37984375808 301 L 358.71503957784 301 L 357.38543121734 301 L 356.72062703709 301 L 356.05582285685 301 L 355.3910186766 301 L 354.72621449635 301 L 354.06141031611 301 L 352.73180195561 301 L 352.06699777536 301 L 351.40219359512 301 L 350.73738941487 301 L 350.07258523462 301 L 349.40778105437 301 L 348.07817269388 301 L 347.41336851363 301 L 346.74856433339 301 L 346.08376015314 301 L 345.41895597289 301 L 344.75415179264 301 L 343.42454343215 301 L 342.7597392519 301 L 342.09493507165 301 L 341.43013089141 301 L 340.76532671116 301 L 340.10052253091 301 L 338.77091417042 301 L 338.10610999017 301 L 337.44130580992 301 L 336.77650162968 301 L 336.11169744943 301 L 335.44689326918 301 L 334.11728490869 301 L 333.45248072844 301 L 332.78767654819 301 L 332.12287236794 301 L 331.4580681877 301 L 330.79326400745 301 L 329.46365564696 301 L 328.79885146671 301 L 328.13404728646 301 L 327.46924310621 301 L 326.80443892597 301 L 326.13963474572 301 L 324.81002638522 301 L 324.14522220498 301 L 323.48041802473 301 L 322.81561384448 301 L 322.15080966424 301 L 321.48600548399 301 L 320.15639712349 301 L 319.49159294325 301 L 318.826788763 301 L 318.16198458275 301 L 317.4971804025 301 L 316.83237622226 301 L 315.50276786176 301 L 314.83796368151 301 L 314.17315950127 301 L 313.50835532102 301 L 312.84355114077 301 L 312.17874696053 301 L 310.84913860003 301 L 310.18433441978 301 L 309.51953023954 301 L 308.85472605929 301 L 308.18992187904 301 L 307.52511769879 301 L 306.1955093383 301 L 305.53070515805 301 L 304.86590097781 301 L 304.20109679756 301 L 303.53629261731 301 L 302.87148843706 301 L 301.54188007657 301 L 300.87707589632 301 L 300.21227171607 301 L 299.54746753583 301 L 298.88266335558 301 L 298.21785917533 301 L 296.88825081484 301 L 296.22344663459 301 L 295.55864245434 301 L 294.8938382741 301 L 294.22903409385 301 L 293.5642299136 301 L 292.23462155311 301 L 291.56981737286 301 L 290.90501319261 301 L 290.24020901236 301 L 289.57540483212 301 L 288.91060065187 301 L 287.58099229138 301 L 286.91618811113 301 L 286.25138393088 301 L 285.58657975063 301 L 284.92177557039 301 L 284.25697139014 301 L 282.92736302964 301 L 282.2625588494 301 L 281.59775466915 301 L 280.9329504889 301 L 280.26814630866 301 L 279.60334212841 301 L 278.27373376791 301 L 277.60892958767 301 L 276.94412540742 301 L 276.27932122717 301 L 275.61451704692 301 L 274.94971286668 301 L 273.62010450618 301 L 272.95530032594 301 L 272.29049614569 301 L 271.62569196544 301 L 270.96088778519 301 L 270.29608360495 301 L 268.96647524445 301 L 268.3016710642 301 L 267.63686688396 301 L 266.97206270371 301 L 266.30725852346 301 L 265.64245434321 301 L 264.31284598272 301 L 263.64804180247 301 L 262.98323762223 301 L 262.31843344198 301 L 261.65362926173 301 L 260.98882508148 301 L 259.65921672099 301 L 258.99441254074 301 L 258.32960836049 301 L 257.66480418025 301 L 257 301 L 256.33519581975 301 L 255.00558745926 301 L 254.34078327901 301 L 253.67597909876 301 L 253.01117491852 301 L 252.34637073827 301 L 251.68156655802 301 L 250.35195819753 301 L 249.68715401728 301 L 249.02234983703 301 L 248.35754565679 301 L 247.69274147654 301 L 247.02793729629 301 L 245.6983289358 301 L 245.03352475555 301 L 244.3687205753 301 L 243.70391639505 301 L 243.03911221481 301 L 242.37430803456 301 L 241.04469967406 301 L 240.37989549382 301 L 239.71509131357 301 L 239.05028713332 301 L 238.38548295308 301 L 237.72067877283 301 L 236.39107041233 301 L 235.72626623209 301 L 235.06146205184 301 L 234.39665787159 301 L 233.73185369134 301 L 233.0670495111 301 L 231.7374411506 301 L 231.07263697036 301 L 230.40783279011 301 L 229.74302860986 301 L 229.07822442961 301 L 228.41342024937 301 L 227.08381188887 301 L 226.41900770862 301 L 225.75420352838 301 L 225.08939934813 301 L 224.42459516788 301 L 223.75979098764 301 L 222.43018262714 301 L 221.76537844689 301 L 221.10057426665 301 L 220.4357700864 301 L 219.77096590615 301 L 219.1061617259 301 L 217.77655336541 301 L 217.11174918516 301 L 216.44694500491 301 L 215.78214082467 301 L 215.11733664442 301 L 214.45253246417 301 L 213.12292410368 301 L 212.45811992343 301 L 211.79331574318 301 L 211.12851156294 301 L 210.46370738269 301 L 209.79890320244 301 L 208.46929484195 301 L 207.8044906617 301 L 207.13968648145 301 L 206.47488230121 301 L 205.81007812096 301 L 205.14527394071 301 L 203.81566558022 301 L 203.15086139997 301 L 202.48605721972 301 L 201.82125303947 301 L 201.15644885923 301 L 200.49164467898 301 L 199.16203631849 301 L 198.49723213824 301 L 197.83242795799 301 L 197.16762377774 301 L 196.5028195975 301 L 195.83801541725 301 L 194.50840705675 301 L 193.84360287651 301 L 193.17879869626 301 L 192.51399451601 301 L 191.84919033576 301 L 191.18438615552 301 L 189.85477779502 301 L 189.18997361478 301 L 188.52516943453 301 L 187.86036525428 301 L 187.19556107403 301 L 186.53075689379 301 L 185.20114853329 301 L 184.53634435304 301 L 183.8715401728 301 L 183.20673599255 301 L 182.5419318123 301 L 181.87712763206 301 L 180.54751927156 301 L 179.88271509131 301 L 179.21791091107 301 L 178.55310673082 301 L 177.88830255057 301 L 177.22349837032 301 L 175.89389000983 301 L 175.22908582958 301 L 174.56428164934 301 L 173.89947746909 301 L 173.23467328884 301 L 172.56986910859 301 L 171.2402607481 301 L 170.57545656785 301 L 169.9106523876 301 L 169.24584820736 301 L 168.58104402711 301 L 167.91623984686 301 L 166.58663148637 301 L 165.92182730612 301 L 165.25702312587 301 L 164.59221894563 301 L 163.92741476538 301 L 163.26261058513 301 L 161.93300222464 301 L 161.26819804439 301 L 160.60339386414 301 L 159.93858968389 301 L 159.27378550365 301 L 158.6089813234 301 L 157.27937296291 301 L 156.61456878266 301 L 155.94976460241 301 L 155.28496042216 301 L 154.62015624192 301 L 153.95535206167 301 L 152.62574370117 301 L 151.96093952093 301 L 151.29613534068 301 L 150.63133116043 301 L 149.96652698019 301 L 149.30172279994 301 L 147.97211443944 301 L 147.3073102592 301 L 146.64250607895 301 L 145.9777018987 301 L 145.31289771845 301 L 144.64809353821 301 L 143.31848517771 301 L 142.65368099746 301 L 141.98887681722 301 L 141.32407263697 301 L 140.65926845672 301 L 139.99446427648 301 L 138.66485591598 301 L 138.00005173573 301 L 137.33524755549 301 L 136.67044337524 301 L 136.00563919499 301 L 135.34083501474 301 L 134.01122665425 301 L 133.346422474 301 L 132.68161829376 301 L 132.01681411351 301 L 131.35200993326 301 L 130.68720575301 301 L 129.35759739252 301 L 128.69279321227 301 L 128.02798903202 301 L 127.36318485178 301 L 126.69838067153 301 L 126.03357649128 301 L 124.70396813079 301 L 124.03916395054 301 L 123.37435977029 301 L 122.70955559005 301 L 122.0447514098 301 L 121.37994722955 301 L 120.05033886906 301 L 119.38553468881 301 L 118.72073050856 301 L 118.05592632831 301 L 117.39112214807 301 L 116.72631796782 301 L 115.39670960733 301 L 114.73190542708 301 L 114.06710124683 301 L 113.40229706658 301 L 112.73749288634 301 L 112.07268870609 301 L 110.74308034559 301 L 110.07827616535 301 L 109.4134719851 301 L 108.74866780485 301 L 108.08386362461 301 L 107.41905944436 301 L 106.08945108386 301 L 105.42464690362 301 L 104.75984272337 301 L 104.09503854312 301 L 103.43023436287 301 L 102.76543018263 301 L 101.43582182213 301 L 100.77101764189 301 L 100.10621346164 301 L 99.441409281391 301 L 98.776605101143 301 L 98.111800920896 301 L 96.782192560401 301 L 96.117388380154 301 L 95.452584199907 301 L 94.78778001966 301 L 94.122975839412 301 L 93.458171659165 301 L 92.12856329867 301 L 91.463759118423 301 L 90.798954938176 301 L 90.134150757928 301 L 89.469346577681 301 L 88.804542397434 301 L 87.474934036939 301 L 86.810129856692 301 L 86.145325676445 301 L 85.480521496197 301 L 84.81571731595 301 L 84.150913135703 301 L 82.821304775208 301 L 82.156500594961 301 L 81.491696414714 301 L 80.826892234466 301 L 80.162088054219 301 L 79.497283873972 301 L 78.167675513477 301 L 77.50287133323 301 L 76.838067152983 301 L 76.173262972735 301 L 75.508458792488 301 L 74.843654612241 301 L 73.514046251746 301 L 72.849242071499 301 L 72.184437891251 301 L 71.519633711004 301 L 70.854829530757 301 L 70.19002535051 301 L 68.860416990015 301 L 68.195612809768 301 L 67.53080862952 301 L 66.866004449273 301 L 66.201200269026 301 L 65.536396088779 301 L 64.206787728284 301 L 63.541983548037 301 L 62.877179367789 301 L 62.212375187542 301 L 61.547571007295 301 L 60.882766827047 301 L 59.553158466553 301 L 58.888354286306 301 L 58.223550106058 301 L 57.558745925811 301 L 56.893941745564 301 L 56.229137565316 301 L 54.899529204822 301 L 54.234725024574 301 L 53.569920844327 301 L 52.90511666408 301 L 52.240312483833 301 L 51.575508303585 301 L 50.245899943091 301 L 49.581095762843 301 L 48.916291582596 301 L 48.251487402349 301 L 47.586683222102 301 L 46.921879041854 301 L 45.59227068136 301 L 44.927466501112 301 L 44.262662320865 301 L 43.597858140618 301 L 42.93305396037 301 L 42.268249780123 301 L 40.938641419629 301 L 40.273837239381 301 L 39.609033059134 301 L 38.944228878887 301 L 38.279424698639 301 L 37.614620518392 301 L 36.285012157897 301 L 35.62020797765 301 L 34.955403797403 301 L 34.290599617156 301 L 33.625795436908 301 L 32.960991256661 301 L 31.631382896166 301 L 30.966578715919 301 L 30.301774535672 301 L 29.636970355424 301 L 28.972166175177 301 L 28.30736199493 301 L 26.977753634435 301 L 26.312949454188 301 L 25.648145273941 301 L 24.983341093693 301 L 24.318536913446 301 L 23.653732733199 301 L 22.324124372704 301 L 21.659320192457 301 L 20.99451601221 301 L 20.329711831962 301 L 19.664907651715 301 L 19.000103471468 301 L 17.670495110973 301 L 17.005690930726 301 L 16.340886750479 301 L 15.676082570231 301 L 15.011278389984 301 L 14.346474209737 301 L 13.016865849242 301 L 12.352061668995 301 L 11.687257488747 301 L 11.0224533085 301 L 10.357649128253 301 L 9.6928449480056 301 L 8.363236587511 301 L 7.6984324072637 301 L 7.0336282270164 301 L 6.3688240467691 301 L 5.7040198665218 301 L 5.0392156862745 301" fill="url(#highcharts-wjoohx5-9)"></path><path stroke-linecap="round" stroke-linejoin="round" stroke-width="1" stroke="#7cb5ec" class="highcharts-graph" d="M 5.0392156862745 231.26833333333335 L 5.7040198665218 235.98399999999992 L 6.3688240467691 236.28500000000003 L 7.0336282270164 236.98733333333325 L 7.6984324072637 245.91699999999994 L 8.363236587511 244.61266666666666 L 9.6928449480056 243.40866666666668 L 10.357649128253 246.519 L 11.0224533085 249.82999999999996 L 11.687257488747 251.03399999999993 L 12.352061668995 253.14099999999993 L 13.016865849242 251.636 L 14.346474209737 252.1376666666666 L 15.011278389984 252.83999999999997 L 15.676082570231 254.2446666666666 L 16.340886750479 248.72633333333332 L 17.005690930726 244.412 L 17.670495110973 238.69299999999998 L 19.000103471468 237.78999999999996 L 19.664907651715 238.4923333333333 L 20.329711831962 236.38533333333334 L 20.99451601221 232.27166666666668 L 21.659320192457 233.6763333333333 L 22.324124372704 232.0709999999999 L 23.653732733199 232.0709999999999 L 24.318536913446 235.382 L 24.983341093693 230.265 L 25.648145273941 232.0709999999999 L 26.312949454188 226.35199999999998 L 26.977753634435 221.43566666666663 L 28.30736199493 220.332 L 28.972166175177 223.74333333333328 L 29.636970355424 218.32533333333333 L 30.301774535672 230.265 L 30.966578715919 237.28833333333336 L 31.631382896166 235.58266666666663 L 32.960991256661 235.18133333333336 L 33.625795436908 235.2816666666667 L 34.290599617156 241.0006666666666 L 34.955403797403 238.8936666666666 L 35.62020797765 237.99066666666658 L 36.285012157897 239.89699999999993 L 37.614620518392 240.90033333333326 L 38.279424698639 242.40533333333335 L 38.944228878887 244.61266666666666 L 39.609033059134 243.30833333333334 L 40.273837239381 247.72299999999996 L 40.938641419629 247.8233333333333 L 42.268249780123 248.2246666666666 L 42.93305396037 246.81999999999996 L 43.597858140618 246.81999999999996 L 44.262662320865 249.02733333333327 L 44.927466501112 243.70966666666664 L 45.59227068136 247.92366666666663 L 46.921879041854 247.62266666666665 L 47.586683222102 246.61933333333332 L 48.251487402349 249.32833333333335 L 48.916291582596 251.03399999999993 L 49.581095762843 253.54233333333332 L 50.245899943091 251.43533333333335 L 51.575508303585 251.13433333333327 L 52.240312483833 248.92699999999996 L 52.90511666408 246.81999999999996 L 53.569920844327 246.519 L 54.234725024574 251.636 L 54.899529204822 250.63266666666664 L 56.229137565316 250.53233333333333 L 56.893941745564 250.93366666666662 L 57.558745925811 255.549 L 58.223550106058 252.1376666666666 L 58.888354286306 252.1376666666666 L 59.553158466553 253.64266666666666 L 60.882766827047 253.743 L 61.547571007295 252.83999999999997 L 62.212375187542 254.14433333333326 L 62.877179367789 251.13433333333327 L 63.541983548037 245.61599999999999 L 64.206787728284 244.61266666666666 L 65.536396088779 243.60933333333332 L 66.201200269026 242.7063333333333 L 66.866004449273 241.50233333333333 L 67.53080862952 243.70966666666664 L 68.195612809768 238.59266666666664 L 68.860416990015 242.00399999999993 L 70.19002535051 241.70299999999997 L 70.854829530757 246.41866666666667 L 71.519633711004 247.12099999999992 L 72.184437891251 249.6293333333333 L 72.849242071499 248.92699999999996 L 73.514046251746 248.62599999999998 L 74.843654612241 252.23799999999991 L 75.508458792488 250.83333333333331 L 76.173262972735 252.23799999999991 L 76.838067152983 261.2679999999999 L 77.50287133323 261.76966666666664 L 78.167675513477 261.4686666666667 L 79.497283873972 261.9703333333333 L 80.162088054219 259.763 L 80.826892234466 258.65933333333334 L 81.491696414714 261.569 L 82.156500594961 259.56233333333336 L 82.821304775208 261.2679999999999 L 84.150913135703 259.8633333333333 L 84.81571731595 261.569 L 85.480521496197 261.569 L 86.145325676445 264.3783333333333 L 86.810129856692 266.58566666666667 L 87.474934036939 263.2746666666666 L 88.804542397434 263.87666666666667 L 89.469346577681 264.6793333333333 L 90.134150757928 264.0773333333333 L 90.798954938176 261.569 L 91.463759118423 261.1676666666666 L 92.12856329867 262.37166666666656 L 93.458171659165 263.17433333333327 L 94.122975839412 263.47533333333325 L 94.78778001966 261.3683333333332 L 95.452584199907 261.9703333333333 L 96.117388380154 269.696 L 96.782192560401 270.19766666666663 L 98.111800920896 269.99699999999996 L 98.776605101143 270.09733333333327 L 99.441409281391 275.3146666666666 L 100.10621346164 275.114 L 100.77101764189 276.2176666666666 L 101.43582182213 276.5186666666666 L 102.76543018263 276.5186666666666 L 103.43023436287 275.4149999999999 L 104.09503854312 273.40833333333325 L 104.75984272337 272.90666666666664 L 105.42464690362 264.7796666666666 L 106.08945108386 259.36166666666657 L 107.41905944436 259.763 L 108.08386362461 260.967 L 108.74866780485 258.75966666666665 L 109.4134719851 260.8666666666666 L 110.07827616535 255.64933333333332 L 110.74308034559 252.94033333333329 L 112.07268870609 251.636 L 112.73749288634 254.84666666666664 L 113.40229706658 256.6526666666667 L 114.06710124683 259.36166666666657 L 114.73190542708 257.95699999999994 L 115.39670960733 259.8633333333333 L 116.72631796782 259.16099999999994 L 117.39112214807 260.3649999999999 L 118.05592632831 262.27133333333325 L 118.72073050856 256.753 L 119.38553468881 259.06066666666663 L 120.05033886906 263.2746666666666 L 121.37994722955 262.97366666666665 L 122.0447514098 260.967 L 122.70955559005 263.977 L 123.37435977029 264.3783333333333 L 124.03916395054 265.8833333333333 L 124.70396813079 265.0806666666666 L 126.03357649128 264.6793333333333 L 126.69838067153 262.37166666666656 L 127.36318485178 264.9803333333333 L 128.02798903202 265.1809999999999 L 128.69279321227 269.19433333333325 L 129.35759739252 271.20099999999996 L 130.68720575301 271.3013333333333 L 131.35200993326 273.00699999999995 L 132.01681411351 274.21099999999996 L 132.68161829376 275.5153333333333 L 133.346422474 273.90999999999997 L 134.01122665425 273.30799999999994 L 135.34083501474 273.1073333333333 L 136.00563919499 274.21099999999996 L 136.67044337524 274.61233333333337 L 137.33524755549 270.19766666666663 L 138.00005173573 268.9936666666666 L 138.66485591598 269.3949999999999 L 139.99446427648 269.79633333333334 L 140.65926845672 270.79966666666667 L 141.32407263697 270.09733333333327 L 141.98887681722 269.89666666666665 L 142.65368099746 270.49866666666657 L 143.31848517771 273.2076666666666 L 144.64809353821 273.70933333333335 L 145.31289771845 276.5186666666666 L 145.9777018987 273.40833333333325 L 146.64250607895 273.80966666666666 L 147.3073102592 269.49533333333324 L 147.97211443944 264.9803333333333 L 149.30172279994 265.3816666666666 L 149.96652698019 267.0873333333333 L 150.63133116043 266.38499999999993 L 151.29613534068 264.2779999999999 L 151.96093952093 265.98366666666664 L 152.62574370117 269.2946666666666 L 153.95535206167 269.3949999999999 L 154.62015624192 269.3949999999999 L 155.28496042216 269.89666666666665 L 155.94976460241 265.8833333333333 L 156.61456878266 266.78633333333335 L 157.27937296291 262.37166666666656 L 158.6089813234 261.6693333333333 L 159.27378550365 262.97366666666665 L 159.93858968389 263.5756666666667 L 160.60339386414 262.77299999999997 L 161.26819804439 270.79966666666667 L 161.93300222464 269.79633333333334 L 163.26261058513 270.29799999999994 L 163.92741476538 269.49533333333324 L 164.59221894563 269.2946666666666 L 165.25702312587 268.9936666666666 L 165.92182730612 263.17433333333327 L 166.58663148637 259.36166666666657 L 167.91623984686 259.462 L 168.58104402711 261.569 L 169.24584820736 261.1676666666666 L 169.9106523876 261.9703333333333 L 170.57545656785 265.0806666666666 L 171.2402607481 267.4886666666666 L 172.56986910859 266.58566666666667 L 173.23467328884 268.0906666666666 L 173.89947746909 267.6893333333333 L 174.56428164934 265.28133333333324 L 175.22908582958 269.99699999999996 L 175.89389000983 270.49866666666657 L 177.22349837032 270.9 L 177.88830255057 271.4016666666666 L 178.55310673082 274.11066666666665 L 179.21791091107 272.8063333333333 L 179.88271509131 272.0036666666666 L 180.54751927156 273.1073333333333 L 181.87712763206 272.90666666666664 L 182.5419318123 272.90666666666664 L 183.20673599255 273.40833333333325 L 183.8715401728 270.29799999999994 L 184.53634435304 271.4016666666666 L 185.20114853329 276.41833333333324 L 186.53075689379 275.0136666666666 L 187.19556107403 272.90666666666664 L 187.86036525428 273.30799999999994 L 188.52516943453 272.706 L 189.18997361478 279.4283333333333 L 189.85477779502 280.33133333333325 L 191.18438615552 280.33133333333325 L 191.84919033576 280.23099999999994 L 192.51399451601 279.3279999999999 L 193.17879869626 281.736 L 193.84360287651 279.93 L 194.50840705675 282.2376666666666 L 195.83801541725 282.1373333333333 L 196.5028195975 282.6389999999999 L 197.16762377774 283.24099999999993 L 197.83242795799 278.02366666666666 L 198.49723213824 275.114 L 199.16203631849 276.017 L 200.49164467898 276.2176666666666 L 201.15644885923 278.3246666666666 L 201.82125303947 277.72266666666667 L 202.48605721972 275.4149999999999 L 203.15086139997 273.1073333333333 L 203.81566558022 273.80966666666666 L 205.14527394071 273.70933333333335 L 205.81007812096 274.813 L 206.47488230121 275.91666666666663 L 207.13968648145 274.51199999999994 L 207.8044906617 272.0036666666666 L 208.46929484195 271.1006666666666 L 209.79890320244 271.1006666666666 L 210.46370738269 273.1073333333333 L 211.12851156294 276.1173333333333 L 211.79331574318 279.1273333333333 L 212.45811992343 280.93333333333334 L 213.12292410368 280.73266666666666 L 214.45253246417 278.726 L 215.11733664442 277.32133333333326 L 215.78214082467 277.0203333333333 L 216.44694500491 277.12066666666664 L 217.11174918516 277.12066666666664 L 217.77655336541 277.12066666666664 L 219.1061617259 277.0203333333333 L 219.77096590615 275.91666666666663 L 220.4357700864 276.5186666666666 L 221.10057426665 277.12066666666664 L 221.76537844689 278.02366666666666 L 222.43018262714 278.02366666666666 L 223.75979098764 278.3246666666666 L 224.42459516788 278.9266666666667 L 225.08939934813 276.91999999999996 L 225.75420352838 279.82966666666664 L 226.41900770862 279.93 L 227.08381188887 280.0303333333333 L 228.41342024937 280.0303333333333 L 229.07822442961 280.23099999999994 L 229.74302860986 282.94 L 230.40783279011 282.1373333333333 L 231.07263697036 278.42499999999995 L 231.7374411506 274.11066666666665 L 233.0670495111 274.21099999999996 L 233.73185369134 274.0103333333333 L 234.39665787159 271.20099999999996 L 235.06146205184 271.803 L 235.72626623209 271.5019999999999 L 236.39107041233 270.69933333333336 L 237.72067877283 271.1006666666666 L 238.38548295308 271.4016666666666 L 239.05028713332 271.1006666666666 L 239.71509131357 270.19766666666663 L 240.37989549382 268.59233333333333 L 241.04469967406 267.38833333333326 L 242.37430803456 267.0873333333333 L 243.03911221481 267.9903333333333 L 243.70391639505 267.38833333333326 L 244.3687205753 265.0806666666666 L 245.03352475555 265.783 L 245.6983289358 267.1876666666666 L 247.02793729629 267.0873333333333 L 247.69274147654 265.3816666666666 L 248.35754565679 267.0873333333333 L 249.02234983703 265.58233333333334 L 249.68715401728 268.793 L 250.35195819753 267.89 L 251.68156655802 268.1909999999999 L 252.34637073827 265.28133333333324 L 253.01117491852 262.77299999999997 L 253.67597909876 261.9703333333333 L 254.34078327901 262.97366666666665 L 255.00558745926 262.47200000000004 L 256.33519581975 262.0706666666666 L 257 264.1776666666666 L 257.66480418025 262.67266666666666 L 258.32960836049 265.28133333333324 L 258.99441254074 265.98366666666664 L 259.65921672099 265.58233333333334 L 260.98882508148 265.1809999999999 L 261.65362926173 265.8833333333333 L 262.31843344198 265.8833333333333 L 262.98323762223 267.1876666666666 L 263.64804180247 266.18433333333326 L 264.31284598272 268.1909999999999 L 265.64245434321 267.89 L 266.30725852346 270.49866666666657 L 266.97206270371 269.89666666666665 L 267.63686688396 268.8933333333333 L 268.3016710642 266.18433333333326 L 268.96647524445 265.28133333333324 L 270.29608360495 264.88 L 270.96088778519 265.8833333333333 L 271.62569196544 266.28466666666657 L 272.29049614569 267.9903333333333 L 272.95530032594 266.08399999999995 L 273.62010450618 265.98366666666664 L 274.94971286668 265.68266666666665 L 275.61451704692 266.686 L 276.27932122717 263.977 L 276.94412540742 261.569 L 277.60892958767 261.6693333333333 L 278.27373376791 261.4686666666667 L 279.60334212841 261.87 L 280.26814630866 261.3683333333332 L 280.9329504889 258.1576666666666 L 281.59775466915 258.1576666666666 L 282.2625588494 258.0573333333333 L 282.92736302964 256.25133333333326 L 284.25697139014 256.15099999999995 L 284.92177557039 256.8533333333333 L 285.58657975063 255.04733333333328 L 286.25138393088 254.44533333333334 L 286.91618811113 253.94366666666662 L 287.58099229138 256.25133333333326 L 288.91060065187 256.15099999999995 L 289.57540483212 255.84999999999997 L 290.24020901236 253.14099999999993 L 290.90501319261 253.64266666666666 L 291.56981737286 252.539 L 292.23462155311 255.1476666666666 L 293.5642299136 254.84666666666664 L 294.22903409385 253.8433333333333 L 294.8938382741 252.83999999999997 L 295.55864245434 252.63933333333333 L 296.22344663459 252.63933333333333 L 296.88825081484 254.54566666666668 L 298.21785917533 253.94366666666662 L 298.88266335558 252.539 L 299.54746753583 250.0306666666666 L 300.21227171607 246.71966666666663 L 300.87707589632 247.92366666666663 L 301.54188007657 245.7163333333333 L 302.87148843706 243.1076666666666 L 303.53629261731 242.80666666666662 L 304.20109679756 241.50233333333333 L 304.86590097781 242.80666666666662 L 305.53070515805 242.305 L 306.1955093383 239.39533333333333 L 307.52511769879 238.99399999999994 L 308.18992187904 238.99399999999994 L 308.85472605929 239.39533333333333 L 309.51953023954 240.39866666666666 L 310.18433441978 228.25833333333333 L 310.84913860003 228.5593333333333 L 312.17874696053 228.65966666666662 L 312.84355114077 225.44899999999998 L 313.50835532102 227.7566666666666 L 314.17315950127 226.55266666666665 L 314.83796368151 227.15466666666669 L 315.50276786176 229.46233333333333 L 316.83237622226 229.06099999999992 L 317.4971804025 228.0576666666666 L 318.16198458275 229.16133333333335 L 318.826788763 223.54266666666663 L 319.49159294325 226.85366666666658 L 320.15639712349 221.33533333333332 L 321.48600548399 221.93733333333324 L 322.15080966424 222.5393333333333 L 322.81561384448 222.33866666666665 L 323.48041802473 218.32533333333333 L 324.14522220498 216.41899999999998 L 324.81002638522 212.30533333333332 L 326.13963474572 211.60299999999995 L 326.80443892597 212.40566666666663 L 327.46924310621 209.09466666666668 L 328.13404728646 208.49266666666662 L 328.79885146671 211.4023333333333 L 329.46365564696 201.77033333333327 L 330.79326400745 201.46933333333328 L 331.4580681877 210.39899999999997 L 332.12287236794 211.4023333333333 L 332.78767654819 215.41566666666665 L 333.45248072844 212.7066666666666 L 334.11728490869 208.79366666666658 L 335.44689326918 209.49599999999995 L 336.11169744943 216.5193333333333 L 336.77650162968 210.69999999999993 L 337.44130580992 221.73666666666662 L 338.10610999017 220.13133333333334 L 338.77091417042 217.22166666666666 L 340.10052253091 216.31866666666667 L 340.76532671116 219.42899999999997 L 341.43013089141 214.31199999999998 L 342.09493507165 210.19833333333332 L 342.7597392519 209.99766666666667 L 343.42454343215 211.4023333333333 L 344.75415179264 211.80366666666657 L 345.41895597289 213.20833333333331 L 346.08376015314 215.41566666666665 L 346.74856433339 209.09466666666668 L 347.41336851363 207.79033333333325 L 348.07817269388 202.272 L 349.40778105437 200.76699999999994 L 350.07258523462 199.46266666666662 L 350.73738941487 203.57633333333328 L 351.40219359512 199.7636666666667 L 352.06699777536 192.53966666666662 L 352.73180195561 197.65666666666658 L 354.06141031611 198.1583333333333 L 354.72621449635 195.5496666666666 L 355.3910186766 199.06133333333332 L 356.05582285685 196.65333333333325 L 356.72062703709 199.16166666666663 L 357.38543121734 202.17166666666665 L 358.71503957784 201.8706666666667 L 359.37984375808 197.45599999999996 L 360.04464793833 203.07466666666664 L 360.70945211858 204.17833333333334 L 361.37425629883 203.17499999999998 L 362.03906047907 193.54299999999995 L 363.36866883957 192.43933333333328 L 364.03347301981 196.95433333333335 L 364.69827720006 199.06133333333332 L 365.36308138031 201.06799999999998 L 366.02788556056 198.4593333333333 L 366.6926897408 197.55633333333327 L 368.0222981013 196.65333333333325 L 368.68710228155 198.6599999999999 L 369.35190646179 193.14166666666665 L 370.01671064204 188.32566666666662 L 370.68151482229 192.84066666666666 L 371.34631900254 186.72033333333337 L 372.67592736303 187.12166666666664 L 373.34073154328 188.72700000000003 L 374.00553572352 192.53966666666662 L 374.67033990377 197.2553333333333 L 375.33514408402 194.9476666666667 L 375.99994826427 198.25866666666664 L 377.32955662476 198.25866666666664 L 377.99436080501 196.65333333333325 L 378.65916498526 201.36899999999997 L 379.3239691655 190.4326666666666 L 379.98877334575 186.72033333333337 L 380.653577526 182.90766666666667 L 381.98318588649 182.60666666666668 L 382.64799006674 183.00799999999998 L 383.31279424699 179.09499999999997 L 383.97759842723 180.60000000000002 L 384.64240260748 182.40599999999995 L 385.30720678773 179.29566666666662 L 386.63681514822 178.79399999999998 L 387.30161932847 177.69033333333334 L 387.96642350872 178.09166666666664 L 388.63122768896 173.97799999999998 L 389.29603186921 174.37933333333325 L 389.96083604946 167.45633333333336 L 391.29044440995 163.44300000000004 L 391.9552485902 162.54000000000002 L 392.62005277045 159.4296666666667 L 393.2848569507 155.81766666666664 L 393.94966113094 152.50666666666666 L 394.61446531119 156.0183333333333 L 395.94407367169 158.02499999999995 L 396.60887785193 155.41633333333334 L 397.27368203218 151.0016666666666 L 397.93848621243 152.30600000000004 L 398.60329039267 140.66733333333332 L 399.26809457292 136.15233333333336 L 400.59770293342 135.65066666666664 L 401.26250711366 138.76099999999997 L 401.92731129391 134.6473333333333 L 402.59211547416 139.16233333333338 L 403.25691965441 120.60066666666663 L 403.92172383465 108.15933333333334 L 405.25133219515 101.33666666666664 L 405.91613637539 110.5673333333333 L 406.58094055564 121.7043333333333 L 407.24574473589 114.4803333333333 L 407.91054891614 116.98866666666669 L 408.57535309638 114.4803333333333 L 409.90496145688 116.08566666666667 L 410.56976563713 118.69433333333328 L 411.23456981737 129.42999999999998 L 411.89937399762 119.09566666666669 L 412.56417817787 129.12900000000002 L 413.22898235811 116.68766666666662 L 414.55859071861 116.48699999999997 L 415.22339489886 117.28966666666665 L 415.8881990791 117.08900000000003 L 416.55300325935 118.09233333333336 L 417.2178074396 123.41 L 417.88261161985 122.10566666666668 L 419.21221998034 123.0086666666667 L 419.87702416059 119.6976666666666 L 420.54182834084 124.21266666666668 L 421.20663252108 123.0086666666667 L 421.87143670133 120.60066666666663 L 422.53624088158 121.7043333333333 L 423.86584924207 121.7043333333333 L 424.53065342232 117.99200000000002 L 425.19545760257 118.59399999999997 L 425.86026178281 120.29966666666667 L 426.52506596306 107.25633333333332 L 427.18987014331 107.156 L 428.5194785038 104.34666666666664 L 429.18428268405 106.25299999999999 L 429.8490868643 105.55066666666661 L 430.51389104454 97.7246666666667 L 431.17869522479 93.71133333333336 L 431.84349940504 78.05933333333331 L 433.17310776553 78.15966666666662 L 433.83791194578 78.862 L 434.50271612603 65.51766666666668 L 435.16752030628 51.97266666666664 L 435.83232448652 59.89899999999997 L 436.49712866677 47.357333333333344 L 437.82673702726 46.053000000000054 L 438.49154120751 53.9793333333333 L 439.15634538776 56.68833333333333 L 439.82114956801 79.96566666666666 L 440.48595374825 62.10633333333328 L 441.1507579285 76.15299999999996 L 442.480366289 76.55433333333337 L 443.14517046924 86.78833333333336 L 443.80997464949 85.08266666666665 L 444.47477882974 88.89533333333335 L 445.13958300998 81.47066666666672 L 445.80438719023 81.87200000000001 L 447.13399555073 81.47066666666672 L 447.79879973097 77.1563333333333 L 448.46360391122 68.32700000000006 L 449.12840809147 71.13633333333328 L 449.79321227172 81.47066666666672 L 450.45801645196 89.39699999999996 L 451.78762481246 91.20299999999997 L 452.45242899271 84.882 L 453.11723317295 75.65133333333335 L 453.7820373532 72.64133333333336 L 454.44684153345 62.00599999999997 L 455.11164571369 57.08966666666663 L 456.44125407419 57.59133333333335 L 457.10605825444 53.87899999999996 L 457.77086243468 61.604666666666674 L 458.43566661493 64.51433333333335 L 459.10047079518 70.93566666666666 L 459.76527497543 74.84866666666667 L 461.09488333592 75.14966666666663 L 461.75968751617 69.02933333333331 L 462.42449169641 68.72833333333332 L 463.08929587666 67.92566666666664 L 463.75410005691 76.65466666666669 L 464.41890423716 80.66800000000003 L 465.74851259765 80.16633333333331 L 466.4133167779 81.87200000000001 L 467.07812095815 89.69800000000004 L 467.74292513839 102.03900000000002 L 468.40772931864 109.46366666666663 L 469.07253349889 107.55733333333328 L 470.40214185938 106.25299999999999 L 471.06694603963 103.14266666666666 L 471.73175021988 106.3533333333333 L 472.39655440012 119.5973333333333 L 473.06135858037 112.77466666666672 L 473.72616276062 107.85833333333338 L 475.05577112111 106.95533333333336 L 475.72057530136 103.94533333333334 L 476.38537948161 108.66099999999994 L 477.05018366186 119.89833333333337 L 477.7149878421 124.01200000000003 L 478.37979202235 127.22266666666667 L 479.70940038284 126.72099999999995 L 480.37420456309 116.5873333333333 L 481.03900874334 103.44366666666662 L 481.70381292359 98.92866666666669 L 482.36861710383 100.43366666666662 L 483.03342128408 92.70800000000003 L 484.36302964458 90.5006666666666 L 485.02783382482 89.29666666666662 L 485.69263800507 80.66800000000003 L 486.35744218532 83.27666666666661 L 487.02224636556 86.989 L 487.68705054581 90.19966666666664 L 489.01665890631 87.69133333333338 L 489.68146308655 85.18299999999996 L 490.3462672668 103.84500000000003 L 491.01107144705 113.27633333333333 L 491.6758756273 110.5673333333333 L 492.34067980754 100.43366666666662 L 493.67028816804 99.93200000000002 L 494.33509234828 114.68099999999995 L 494.99989652853 114.17933333333335 L 495.66470070878 117.4903333333333 L 496.32950488903 112.17266666666666 L 496.99430906927 113.07566666666668 L 498.32391742977 109.06233333333336 L 498.98872161002 114.17933333333335 L 499.65352579026 111.26966666666667 L 500.31832997051 118.293 L 500.98313415076 120.19933333333333 L 501.64793833101 119.5973333333333 L 502.9775466915 121.00200000000004 L 503.64235087175 118.59399999999997 L 504.30715505199 105.14933333333332 L 504.97195923224 107.95866666666669 L 505.63676341249 107.85833333333338 L 506.30156759274 104.84833333333336 L 507.63117595323 88.99566666666666 L 508.29598013348 110.36666666666665 L 508.96078431373 105.34999999999997" fill="none"></path></g><g clip-path="none" transform="translate(76,62) scale(1 1)" class="highcharts-markers highcharts-series-0 highcharts-area-series highcharts-color-0 "></g></g><text y="24" style="color:#333333;font-size:18px;fill:#333333;" class="highcharts-title" text-anchor="middle" x="300"><tspan>USD to EUR exchange rate over time</tspan></text><text y="46" style="color:#666666;fill:#666666;" class="highcharts-subtitle" text-anchor="middle" x="300"><tspan>Click and drag in the plot area to zoom in</tspan></text><g class="highcharts-axis-labels highcharts-xaxis-labels "><text opacity="1" y="382" transform="translate(0,0)" text-anchor="middle" style="color:#666666;cursor:default;font-size:11px;fill:#666666;" x="222.6425060789487"><tspan>Jan '14</tspan></text><text opacity="1" y="382" transform="translate(0,0)" text-anchor="middle" style="color:#666666;cursor:default;font-size:11px;fill:#666666;" x="465.2960318692121"><tspan>Jan '15</tspan></text><text opacity="1" y="382" transform="translate(0,0)" text-anchor="middle" style="color:#666666;cursor:default;font-size:11px;fill:#666666;" x="100.31853691344611"><tspan>Jul '13</tspan></text><text opacity="1" y="382" transform="translate(0,0)" text-anchor="middle" style="color:#666666;cursor:default;font-size:11px;fill:#666666;" x="342.97206270370947"><tspan>Jul '14</tspan></text><text opacity="1" y="382" transform="translate(0,0)" text-anchor="middle" style="color:#666666;cursor:default;font-size:11px;fill:#666666;" x="572.3500003814697"><tspan>Jul '15</tspan></text></g><g class="highcharts-axis-labels highcharts-yaxis-labels "><text opacity="1" y="367" transform="translate(0,0)" text-anchor="end" style="color:#666666;cursor:default;font-size:11px;fill:#666666;" x="61"><tspan>0.7</tspan></text><text opacity="1" y="317" transform="translate(0,0)" text-anchor="end" style="color:#666666;cursor:default;font-size:11px;fill:#666666;" x="61"><tspan>0.75</tspan></text><text opacity="1" y="267" transform="translate(0,0)" text-anchor="end" style="color:#666666;cursor:default;font-size:11px;fill:#666666;" x="61"><tspan>0.8</tspan></text><text opacity="1" y="217" transform="translate(0,0)" text-anchor="end" style="color:#666666;cursor:default;font-size:11px;fill:#666666;" x="61"><tspan>0.85</tspan></text><text opacity="1" y="166" transform="translate(0,0)" text-anchor="end" style="color:#666666;cursor:default;font-size:11px;fill:#666666;" x="61"><tspan>0.9</tspan></text><text opacity="1" y="116" transform="translate(0,0)" text-anchor="end" style="color:#666666;cursor:default;font-size:11px;fill:#666666;" x="61"><tspan>0.95</tspan></text><text opacity="1" y="66" transform="translate(0,0)" text-anchor="end" style="color:#666666;cursor:default;font-size:11px;fill:#666666;" x="61"><tspan>1</tspan></text></g><text y="395" style="cursor:pointer;color:#999999;font-size:9px;fill:#999999;" text-anchor="end" class="highcharts-credits" x="590">Highcharts.com</text></svg>