<svg width="400" height="400" xmlns="http://www.w3.org/2000/svg" style="vector-effect: non-scaling-stroke;">
 <!-- Created with Method Draw - http://github.com/duopixel/Method-Draw/ -->

 <g>
  <title>background</title>
  <rect fill="#fff" id="canvas_background" height="402" width="402" y="-1" x="-1"/>
 </g>
 <g>
  <title>Layer 1</title>
  <defs style="vector-effect: non-scaling-stroke;">
   <style style="vector-effect: non-scaling-stroke;" type="text/css">.land
			{
				fill: #CCCCCC;
				fill-opacity: 1;
				stroke:white;
				stroke-opacity: 1;
				stroke-width:0.5;
			}</style>
   <!-- All areas are listed in the line below. You can use this list in your script. -->
   <!--{id:"IN-AN"},{id:"IN-AP"},{id:"IN-AR"},{id:"IN-AS"},{id:"IN-BR"},{id:"IN-CH"},{id:"IN-CT"},{id:"IN-DD"},{id:"IN-DL"},{id:"IN-DN"},{id:"IN-GA"},{id:"IN-GJ"},{id:"IN-HP"},{id:"IN-HR"},{id:"IN-JH"},{id:"IN-JK"},{id:"IN-KA"},{id:"IN-KL"},{id:"IN-LD"},{id:"IN-MH"},{id:"IN-ML"},{id:"IN-MN"},{id:"IN-MP"},{id:"IN-MZ"},{id:"IN-NL"},{id:"IN-OR"},{id:"IN-PY"},{id:"IN-PB"},{id:"IN-RJ"},{id:"IN-SK"},{id:"IN-TN"},{id:"IN-TR"},{id:"IN-UP"},{id:"IN-UT"},{id:"IN-WB"}-->
  </defs>
  <g id="svg_75">
   <g id="svg_74">
    <path d="m341.392303,315.816223l-0.399872,2.48172l-0.733337,0.306335l-0.28656,-0.718872l-0.41333,0.206268l-0.606567,2.162903l-0.986603,0.006256l0.373383,-5.619843l1.413208,-2.825562l0.85318,-0.368774l0.719818,0.331299l0.066681,4.038269zm-1.859711,4.300842l0.873199,2.619263l-0.086639,2.644257l-0.713257,1.181458l-0.459991,-0.425049l-0.706482,0.262512l0.619904,1.387787l-1.85318,0.218781l-0.613251,-0.687561l0.306763,-5.907471l1.05307,-1.112732l1.579865,-0.181244zm-1.359833,7.726501l0.993164,0.67511l-0.553223,1.35025l-1.459869,1.187775l0.493317,-1.706604l-0.47998,-1.012726l1.006592,-0.493805zm-1.533234,1.756592l0.673248,0.049988l-0.21994,1.362762l0.626617,2.250458l-1.086548,5.338531l-1.339905,-1.456512l-1.273041,-3.275665l0.35321,-0.83139l0.666626,0.337524l0.339905,-0.650116l0.253387,-2.73175l0.913177,-1.062714l0.093262,0.668884zm-1.146423,10.783325l-0.499939,-0.256256l0.599854,-1.800354l0.853241,1.675293l-0.953156,0.381317zm-1.886566,10.839661l-1.85968,-0.300079l-0.173248,-1.962891l0.139893,-1.243958l1.933136,-1.437866l1.079834,2.594299l-1.119934,2.350494zm3.992981,18.015961l-1.066559,-0.481323l0.686554,-1.275269l0.639954,0.675171l-0.259949,1.081421zm10.225342,14.027771l-0.706604,0.606354l-0.499939,-1.869141l0.953247,-1.156433l0.253296,2.41922zm-1.019867,1.931549l-1.559814,0.050049l-0.41333,-1.437775l0.946625,-0.275055l1.02652,1.662781zm3.652924,7.245209l-1.239899,0.993958l-0.553314,-0.76889l1.333252,-1.669128l0.459961,1.444061zm2.352966,6.632538l-1.213165,0.693848l-0.626648,-2.15036l-1.599762,-1.437805l0.339935,-1.944092l1.866425,-0.675201l0.726624,0.475159l0.919891,3.213074l-0.4133,1.825378z" class="land" id="svg_72"/>
    <path d="m166.367584,243.177094l0.260025,0.012543l0,0l0.893143,1.631531l0,0l2.039749,-0.312561l1.039871,0.431305l0,0l2.479736,2.600494l-0.126678,2.606812l2.80629,1.787842l0,0l0.726547,3.594452l0.586655,0.431366l0,0l0.453217,-0.250092l0,0l1.106537,-0.812653l4.952759,0.600098l0,0l2.666306,-0.631348l0.646576,-1.056458l4.552765,-2.125427l1.95311,1.106445l1.166489,-1.243958l-0.52655,-1.612823l0.90654,-3.231873l0.906525,-1.093964l1.206467,0.337555l1.406616,3.413177l3.052856,-2.625549l1.433228,0.862671l1.593185,-0.475098l0.219879,-1.77533l-0.819901,-1.725342l1.359818,-1.625275l1.759781,0.118774l1.559753,-0.818878l0.519974,-0.625153l-1.373138,-1.431549l0.553314,-0.500061l1.206467,0.556335l1.039856,-0.568848l0.813263,-1.562836l0.746506,-0.343842l1.63324,2.519287l0.193283,-0.625122l0.653229,0.556335l-0.059937,2.306702l1.43306,0.368835l1.233231,-0.381348l1.173126,0.556335l2.899658,-0.481293l3.86618,-4.600952l2.193039,0.600159l0,0l0.453384,0.843933l-1.139938,1.612793l-8.198929,9.083038l-6.779266,3.369385l-4.746033,5.663605l-8.465591,4.025787l-3.45961,2.5755l-1.553101,2.48172l0.353302,0.681396l1.253174,0.400055l0.053375,-0.512543l-0.926559,3.806946l-4.279434,2.362976l-3.57962,1.2565l-4.306122,-0.987701l-1.246536,0.243774l-0.999863,0.700165l-1.333084,4.569672l-2.053131,1.725311l0.179977,0.750092l-1.526443,-1.056427l-0.26001,-1.969116l0.073318,1.77536l-0.859894,1.669067l-0.659958,-1.669067l-1.266403,-0.293823l-1.746536,0.293823l-3.79953,2.369202l-2.539612,5.075989l-0.613251,3.438141l1.993042,6.588806l-0.939865,4.675873l2.506348,10.001923l-2.13974,-3.669434l-1.406464,1.275299l0.946518,1.587769l0,0l-1.006546,-0.125061l-4.012833,4.138367l-3.719467,-1.831604l-1.19989,0.393768l0.793228,0.225067l0.073318,1.200256l-4.806061,2.156616l-2.839691,-0.862671l-2.179657,0.26889l-1.593185,0.993927l-0.006638,2.369232l-2.146408,2.500488l-2.506363,-0.862732l-0.366592,-1.031433l0,0l1.633072,-2.181702l1.579865,0.97525l-0.246628,-2.162964l1.419785,-2.031647l-0.006668,-1.600311l-0.479904,0.51886l-2.159714,-0.887665l0.299942,-3.375641l-2.273087,0.137543l-1.853119,-0.887726l0.353287,-2.800568l-2.352982,-0.325073l-0.03334,-0.850128l-1.879807,0.200043l-0.279968,1.719086l-1.839676,0.275085l-0.273392,0.618866l-2.43969,0.268799l-0.379906,-1.606598l-3.279625,-0.275055l-0.219963,1.312744l-2.333031,0.318817l-0.299934,-1.193939l0.939873,-1.269012l-1.933174,-2.975586l1.48658,-0.337585l0.293213,1.625336l1.499832,0.687622l2.186455,-0.318787l0.66655,1.58783l0.659958,0.256287l0.473259,-0.250031l-1.259834,-2.794312l1.033203,-0.61264l1.073135,0.200043l-0.113312,-1.550323l-1.213181,-0.918854l-0.273254,0.756348l-2.839699,-0.593872l-1.126503,1.581512l-2.059692,-0.400055l-0.979843,-1.71283l1.333069,-1.35025l-1.48645,-0.200043l-1.386513,-1.750305l0.306664,-1.975403l0.786575,-0.343811l0.253227,-0.893921l-0.013313,-1.106476l-1.586449,-0.375061l0.466614,-1.356537l3.872833,0.800171l0.866547,-0.381317l0.653305,-1.412781l-0.213318,-1.381561l-2.366356,-3.363129l0.839859,-1.750336l0.90654,0.043732l-1.259827,-2.787994l1.819771,-1.512787l4.839394,0.3125l-0.299942,-4.138275l1.366486,-0.637604l-1.079926,-0.937714l-2.139679,-0.175018l-1.399818,-0.918915l1.686447,-0.331329l1.35984,-1.462799l-0.199944,-4.938446l-0.906586,-3.363159l2.213051,-2.900574l1.546478,-0.600098l-2.726334,-1.77533l0.519897,-2.744293l2.153137,-1.794098l-1.219925,-3.019348l0.206665,-1.394043l0,0l-0.18663,-2.150391l0.906616,-1.375305l1.526428,0.112549l-0.206665,-2.281677l1.153244,-1.387787l1.599762,-0.387543l0.44664,-0.631409l-1.40654,-1.418976l-0.326614,-1.181549l1.293167,-2.625488l-0.259949,-0.812653l1.106537,-0.443817l1.499802,1.368958l1.499832,-0.287476l-0.100006,-2.125488l1.819794,-0.631348l-0.233337,-2.913055l0.973267,-0.818878l0.053299,-0.912689l6.219177,0.70636l0.673325,0.343811l-0.42662,0.656372l1.633102,0.931488l3.05957,-0.575134l4.719421,2.112885l2.219803,-1.262726l0.966476,0.174988l2.353073,2.456787l-0.373337,3.28186l-1.073135,0.868896l0,0.918945l0.886505,-0.193787l0.926498,3.550659l1.293228,1.225281l2.426392,-0.243805zm26.963303,26.680176l0,0l-0.266693,-0.775146l1.219849,0.731384l-0.953156,0.043762z" class="land" id="svg_71"/>
    <path d="m393.665802,119.746857l0.233337,2.050369l3.492798,4.725937l-0.319916,0.587601l-3.466339,-1.369003l-0.826477,-1.994141l-1.306458,-0.631363l-7.319061,1.375259l-2.206482,1.181488l-1.606384,2.244171l-1.453217,0.406342l-2.732941,2.562988l-1.346527,0.150024l-0.853241,1.437805l-2.513,0.88765l-0.320007,-0.375046l-1.273132,0.8564l-1.079834,2.006638l0,1.212738l0,0l-4.526154,-2.344208l-4.306091,-0.350067l0,0l0.006622,-0.212524l0,0l1.426514,-1.156494l2.94635,-1.006439l2.439697,-2.619263l1.619751,0.256302l5.272675,-2.794296l1.513214,-2.019135l2.013062,0.331314l3.939423,-0.562637l1.166534,-1.756577l-0.826599,-0.737656l-0.946533,0.531372l-0.13324,-2.206696l-1.253204,-0.80011l-0.353271,-1.425308l2.719574,-3.919525l-3.986053,0.168808l-1.793213,1.118988l-1.733063,0.531311l-1.779877,-0.312546l-10.1586,3.913254l-3.986237,0.318832l-0.219879,0.9814l-5.819305,4.857239l-0.326599,1.562775l-2.059723,1.356522l-2.679749,0.518875l-1.87973,-0.506363l-0.453339,0.681366l-1.953033,0.418823l-4.739441,-0.099991l-2.273041,-1.212753l-2.673035,1.062714l-5.02597,0.600098l0,0l0.266663,-1.575287l-1.246521,-1.750336l0.073303,-0.956436l1.35318,-1.794098l-0.339996,-0.806427l-1.306458,-1.812836l-3.046387,0.631378l-1.299805,-0.800171l-1.033203,-1.844086l0.786652,-2.150421l2.279663,-0.025024l1.28653,0.73764l2.812927,-1.419022l1.819794,-0.087524l0.086548,-0.556351l0.600098,1.137726l2.652893,-0.893921l0.80661,0.293793l2.44635,-2.431717l-0.879852,-1.319016l0.433289,-0.825134l3.619446,-1.77536l0.393372,0.425095l0.486572,-1.050217l2.546417,-0.231308l-0.0867,-1.431519l1.866394,-2.913055l2.05307,-0.881424l1.986359,0.462585l2.886353,-0.625122l1.413208,0.312546l0.813232,-2.431686l1.793121,-1.37529l1.126495,-2.087921l2.639679,-2.075394l2.099792,-0.231277l0.906433,-1.494049l1.959869,1.569046l0.099915,0.900177l0.799957,-0.281296l7.572327,2.187912l1.866516,-1.381516l-0.053375,-0.925156l1.09317,-0.900177l4.572784,-1.887894l1.539795,-1.168961l2.3797,3.325653l1.606476,-0.712646l0.419952,0.387558l-0.586548,1.112717l-3.206299,1.519073l0.473267,0.337524l-0.053375,1.706604l0.413361,0.525116l2.346344,-1.906631l1.693115,-0.356339l0.186646,1.287781l1.793091,2.975586l-1.953156,1.10022l0.273346,0.587585l-2.286407,1.656586l0.320068,0.887665l-1.166565,0.862671l1.339813,0.287567l0.52002,0.712646l0.78653,-1.068985l2.739624,-0.693893l1.713043,1.387772l2.926392,0.781418l1.31311,-0.775162l3.506256,2.131668l-0.43985,1.956635l0.873199,1.387756l-0.266754,0.731415l-4.299408,2.756775l-2.193024,2.162933z" class="land" id="svg_70"/>
    <path d="m327.947357,130.230118l5.02597,-0.600098l2.673035,-1.062714l2.273041,1.212753l4.739441,0.099991l1.953033,-0.418823l0.453339,-0.681366l1.87973,0.506363l2.679749,-0.518875l2.059723,-1.356522l0.326599,-1.562775l5.819305,-4.857239l0.219879,-0.9814l3.986237,-0.318832l10.1586,-3.913254l1.779877,0.312546l1.733063,-0.531311l1.793213,-1.118988l3.986053,-0.168808l-2.719574,3.919525l0.353271,1.425308l1.253204,0.80011l0.13324,2.206696l0.946533,-0.531372l0.826599,0.737656l-1.166534,1.756577l-3.939423,0.562637l-2.013062,-0.331314l-1.513214,2.019135l-5.272675,2.794296l-1.619751,-0.256302l-2.439697,2.619263l-2.94635,1.006439l-1.426514,1.156494l0,0l-0.006622,0.387589l0,0l-1.279877,1.744049l-0.766541,-1.512772l-1.286499,2.469208l0,0l-2.393127,3.238144l0,0l-0.513184,4.019516l-2.473022,0.900208l-0.0867,-1.794128l-1.206451,0.137512l-2.766296,3.800751l-2.379761,1.675323l1.706482,1.887878l-0.279999,1.925385l0.519928,0.293793l0,0l-1.099823,1.018982l-1.426483,3.819458l-2.57309,2.675537l-0.753235,4.469635l0,0l-2.373047,0.343811l-1.253082,-1.937897l-1.739838,3.682007l-1.953033,1.500244l-0.726624,-0.137512l-0.086639,-1.16272l-1.726501,-0.012512l0,0l-1.246429,0.050049l0.666443,-1.750397l-0.213165,-1.375214l-1.466461,-1.112732l0,0l0.646545,-0.506378l0.826569,-2.525482l0,-2.137939l1.933105,0.64389l1.393158,-0.400055l-1.086609,-1.919128l0,0l1.933197,-1.500305l3.406219,-1.312744l-0.206696,-1.569092l-0.979858,-1.081421l-1.019867,-0.131317l-0.953156,-1.181427l0.566528,-0.956451l-2.679657,-2.638031l-3.432953,1.13147l0.106689,-4.082031l1.146484,-1.375275l-1.293091,-0.175018l-2.832947,0.793884l-1.793182,-0.937668l-1.466492,0.300049l-1.966431,0.737625l-1.086517,1.975433l-2.019714,0.493835l-1.753174,1.500244l-0.373352,-1.28772l-2.312988,-0.281281l0.060089,-0.887695l-3.66626,-0.725128l-2.179718,0.168762l-1.126495,-0.850159l-1.633179,-0.218811l-3.432892,0.800171l-1.406494,0.968933l-1.339844,2.112915l0.846588,1.994141l-2.13974,1.137695l0,0l0.159912,-1.862854l-0.753143,-2.48172l0.566589,-1.187714l-0.26004,-1.319031l-1.319824,-2.231659l-1.153107,-0.475098l0,0l2.039703,-2.019135l-0.073364,-5.351059l0,0l4.866089,-0.693863l0.926575,-1.362793l2.353027,-0.750137l4.372711,1.869125l5.626038,-0.525085l2.566315,0.443802l1.499817,-1.331497l1.153168,0.056259l0.566711,0.887665l2.359528,0.062515l1.679901,-0.887665l3.326263,-0.08754z" class="land" id="svg_69"/>
    <path d="m269.241364,154.753632l-4.406097,-1.86908l0.099976,1.012695l-0.593292,0l-0.099976,0.925171l-2.066437,-0.093781l-1.186462,2.131683l-1.079834,0.275055l-1.773132,6.101166l-0.886627,0l-0.59317,1.387787l-1.479797,-1.112701l-1.673172,1.112701l-0.393265,-1.018951l-0.693298,0l-0.886597,0.925201l-0.593185,1.937836l-0.786575,0.368866l-1.279861,-0.55011l-0.199936,-2.219208l-2.166428,0.275055l0,-2.031647l-1.086517,-1.294037l-2.459641,0.462646l-0.693298,-0.650146l-1.086578,0l-1.279861,2.869293l-1.179779,0.181274l-0.393295,1.112762l-2.759644,0l-0.986572,1.200195l-1.679794,-0.187531l-0.586563,1.018951l-1.973099,-0.73761l-0.493271,-1.112701l-1.279785,-0.181305l-0.886658,1.47525l-1.286438,0l-0.093353,1.206512l-2.56636,-0.650146l-0.493225,-1.662842l-0.986572,-0.92514l-1.379791,0.83139l-2.759735,-1.850342l-0.686554,1.206482l-5.326019,-0.187531l-1.566422,-0.893951l0,0l0.493286,-0.262512l0,0l0.366592,-1.087769l0,0l-0.926559,-1.875336l0,0l-2.453049,-4.232086l0,0l0.639999,-2.431702l0.873123,-0.962708l0,0l0.613327,-0.325073l0,0l3.959457,-1.406525l0.78656,-0.837646l0,0l2.566391,-1.969147l0,0l1.319839,-1.500244l0,0l4.146179,0.200043l0,0l1.12648,0.368805l1.426498,-0.593872l0,0l0.146637,-0.593872l0,0l-1.633087,-1.506531l-4.132858,-1.800354l-1.579727,-1.981659l-0.280045,-1.075195l2.053055,-0.73764l0,0l-0.006653,-1.444046l-3.606171,-1.706573l0,0l0.046646,-0.706375l0.899872,-0.168793l0,0l0.266678,0.118774l0,0l0.753235,0.018738l0.279922,-0.687622l0,0l0.199997,-0.587601l0.773178,-0.081268l3.419556,0.231277l-0.033264,-0.86264l0,0l-2.046494,-1.794113l0,0l-0.29985,-1.206482l-1.21991,0.600128l0,0l-1.153107,-1.081467l0,0l-1.16655,-4.275833l-1.853119,-1.619064l0,0l0.359955,-1.637817l2.019775,-0.037491l1.746399,-0.981461l2.059708,1.769073l4.659485,1.106476l0.639923,1.506561l-0.406662,2.375458l2.733047,0.643875l5.019287,3.325653l1.446533,0.381302l4.139435,-1.856613l1.366562,1.1315l-0.020035,1.619034l1.799774,1.43779l2.359711,-1.28775l2.34642,1.075226l1.773117,-0.287582l5.459213,2.675522l3.706253,-1.625305l2.266449,1.912888l1.359833,0.356308l2.539673,-0.831421l2.566284,0.58136l3.439575,-1.093979l1.719788,1.43782l0.966553,-0.918945l0.153381,-1.387772l1.266388,-0.037506l1.139862,2.469223l-6.132538,4.713425l0,1.937897l3.23291,2.906799l-0.233246,1.856598l0,0l-0.233368,0.500122l-1.273132,-0.368866l0,0l-2.033081,1.794128l-0.013306,3.913239z" class="land" id="svg_68"/>
    <path d="m119.520096,73.287811l-0.219963,1.437775l0,0l-0.519966,0.306305l-1.333153,-1.106461l0.906601,-0.756393l1.166481,0.118774z" class="land" id="svg_67"/>
    <path d="m172.653412,207.195129l1.206543,-2.131683l-0.593292,-2.775543l1.779816,-0.462585l-0.393311,-3.144348l1.079865,-0.275055l0.100006,-1.662811l1.579788,0.368774l0.193359,-1.200226l-0.493286,-0.368805l0.593216,-1.112732l1.086578,-0.087494l-0.099991,-2.681793l1.079834,0.181274l2.173019,-0.73761l1.279861,0.462585l0.593277,-0.737671l1.673157,-0.368805l0.099991,-0.837677l1.973007,-0.83136l-0.099991,-1.200317l1.279861,-1.387726l0.293274,-1.662811l0.793304,-0.831421l2.559647,-0.556396l0.200073,-2.494202l-1.873154,-2.125427l-0.693283,0.093781l-0.886566,-1.294006l-0.493301,0.462616l-0.686569,-0.743896l-2.073013,0.462585l-0.686569,-0.64389l-0.300003,-0.73761l1.579803,-2.131683l-1.186523,-1.475311l0.693298,-0.650085l2.166428,1.206451l3.746155,-0.281311l1.579727,0.831421l3.446289,0.09375l0.693222,0.831421l0.586655,-1.294006l0.986496,0.093811l0.493362,-1.569092l1.306381,-0.443817l0,0l0.319977,0.225006l0,0l1.93309,0.78772l0,0l2.766312,-0.568909l0,0l0.253357,-0.556305l0,0l0.159943,-1.03775l2.093048,-0.881409l0,0l2.279739,2.850555l1.679855,0.70636l0.933228,3.006866l2.179657,0.387573l0.75325,-1.112732l0.753235,0.15625l0.253296,1.187744l-0.666534,0.950195l0.046555,1.469055l0.753326,-0.281311l2.579666,4.275818l3.392914,0.912659l0.153305,0.981506l-1.473145,1.225189l-0.373245,1.050232l-3.332977,2.494232l0.313309,1.731567l0,0l0,0l0,0l-0.893234,1.169006l0,0l-1.166473,0.049988l-1.86644,1.631592l0,0l-1.079834,0.112518l-0.833298,1.231476l-0.539917,1.631592l0.353287,0.875153l0,0l0.339935,1.369019l-0.673279,0.756378l0,0l-0.719894,0.156311l0,0l-0.073318,1.944092l0,0l-1.826447,1.875397l0.793289,1.081451l0,0l-0.153366,1.468994l-1.526489,-0.256287l-1.033218,2.550507l0,0l-0.913193,0.76889l-6.559158,-0.281311l0,0l-1.67981,2.638031l-0.373245,1.737854l-0.999878,-0.018768l0,0l-1.173218,-0.568848l0,0l-0.026672,0.575104l0,0l1.119904,5.882416l0,0l0.306595,1.187683l0,0l-0.173325,1.281494l0,0l-0.073318,2.263l0,0l2.7397,1.212677l1.119919,-0.450073l0.633118,2.181702l0,0l-1.513123,1.06897l0,0l-0.379913,-0.862671l0,0l-2.833038,0.243805l0,0l-2.046417,-2.363037l0,0l-0.439896,0.043793l0,0l-2.539703,-0.231262l0,0l-0.793152,-0.750183l0,0l-0.406662,-0.387543l-1.179932,0.793915l0.060089,1.806549l0,0l1.199814,0.668884l0,0l1.33316,1.031464l0.066666,1.10025l0,0l0,2.756775l2.059769,1.25647l-0.20665,2.250427l0.553223,2.087952l0,0l0.473267,2.544189l-0.953094,1.562836l-3.486282,2.119171l0,0l0.18663,1.018951l-2.406433,2.806793l0,0l-2.879532,1.962891l-0.633286,3.431885l0,0l-0.439987,0.956421l0,0l-0.993164,1.225281l-4.952759,-0.600159l-1.106461,0.806458l0,0l-0.453308,0.250061l0,0l-0.586563,-0.431366l-0.726547,-3.594452l0,0l-2.806366,-1.787842l0.126602,-2.60675l-2.479675,-2.606812l0,0l-1.046509,-0.431305l-2.039749,0.312561l0,0l-0.893143,-1.625275l0,0l-0.519989,-0.618896l0,0l1.479797,-0.900146l-1.013184,-1.250305l0,0l0.30658,-1.544067l0,0l0.359955,-0.625092l0,0l0.939865,-2.275421l0,0l1.14653,-1.150269l0,0l1.306534,-0.818878l0,0l0.379913,1.012695l1.939819,1.325287l2.246414,-1.637817l0.813171,-2.144196l-3.399582,-1.487793l0,0l0.293274,-1.156464l0,0l-2.279663,-1.769104l0,0l-0.313385,0.743896l-0.686493,0.112518l0,0l-0.726563,-0.325043l1.226501,-1.994141l0,0l0.906525,-0.731415l0,0l0.206665,-2.250427l-2.166428,0.112518l0,0l-0.033356,-1.293976l2.946304,-1.637848l0,0l-0.213318,-3.300659l0,0l-0.913193,0.187561l-0.593201,-0.531372l0,0l0.339905,-0.456329l0,0l0.759964,-0.375031l-0.699951,-3.694519l0,0l-0.646576,0.156281l0,0l-0.433273,-2.825531l1.559769,-1.35025l0,0l1.639816,-1.462769l0,0l-0.133347,-0.037506z" class="land" id="svg_66"/>
    <path d="m64.960197,219.497498l0.919914,0.393799l0,0l0.259956,1.200256l-2.112999,-0.056274l0.933128,-1.537781z" class="land" id="svg_65"/>
    <path d="m124.199539,101.724609l0.866547,3.238129l1.486435,1.706573l0,0l-2.246407,1.275223l-2.199699,-1.781601l-1.973068,0.537628l-0.599876,-0.943954l1.546394,-1.569016l0.013306,-1.931656l1.766487,-0.862656l1.339882,0.331329z" class="land" id="svg_64"/>
    <path d="m69.213104,223.004456l1.166473,0.781403l0,0l-0.073318,0.450073l0,0l-0.693222,0.937653l-1.799828,-0.150024l-1.046524,-0.818909l-0.059937,-0.76886l0,0l0.953163,-1.281494l1.35318,-0.637634l0,0l0,0l0,0l0.200012,1.487793z" class="land" id="svg_63"/>
    <path d="m83.671242,283.109894l-0.706596,0.700073l0.246635,0.356354l0.639938,-0.381317l1.173126,0.350006l-0.059944,2.338013l0.806602,2.41922l-0.806602,0.268799l0.073326,3.92572l-3.006302,1.319031l0,0l-1.953049,-2.619263l-0.719894,-3.113068l-1.599831,-1.28775l2.339684,0.443787l-0.139915,-0.437531l-2.133095,-0.681427l-1.319847,-3.600647l0,0l0.933205,-0.043823l1.219849,-0.950134l2.506355,2.850555l0.986572,-0.493835l-0.120033,-0.64389l0.806602,-0.92514l0.833214,0.206268z" class="land" id="svg_62"/>
    <path d="m54.694866,161.467468l0.406593,0.743896l1.613201,-0.081299l0,0l0.006649,0.937683l0,0l0,0l0,0l5.639259,1.444031l0,0l0.406597,0.806396l0,0l0.806599,0.493866l2.34634,-0.150055l0.866615,-1.575256l1.6064,-0.206329l0,0l0,0l0,0l0.546646,2.369232l-0.933205,1.637817l0.206581,0.812683l0,0l0,0l0,0l2.019798,1.912842l1.606468,-1.206482l0.606529,0.618896l0,0l0,0l0,0l0.346642,1.93158l-0.999878,1.012695l0.406662,0.993958l0,0l0,0l0,0l0,0l0,0l1.74646,0.856445l0.679924,1.237732l0.873199,0.056244l0,0l0.539917,0.73764l-0.326614,1.500305l0,0l0,0l0,0l2.613007,0.406311l0,0l0.873199,0.981506l0,0l0.739929,0.431305l0.533279,-0.381378l2.079735,1.40033l0,0l0.139992,1.056427l1.473137,-0.137543l0.746582,1.231506l0,0l0.899879,1.206482l0,0l0,0l0,0l0,0l0,0l1.259834,-0.312561l0.099998,0.556396l-1.673149,3.100586l-4.61277,1.500244l0,0l-0.166595,0.768921l1.119843,1.00647l1.293159,-0.325104l0.666542,0.731415l0,0l-1.993034,0.55011l0,0l-0.659966,-0.55011l0,0l-0.119881,1.362793l0,0l1.159821,2.925537l0,0l-0.65995,1.137726l0.733208,2.175446l0,0l-3.379555,1.444031l0.573334,2.687988l-1.453178,0.45636l0.819901,1.77533l0,0l0,0l0,0l2.492981,-0.843933l3.712814,0.031311l0,0l0,0l0,0l-0.573189,1.112701l-2.613007,0.125031l-1.333145,0.843903l-0.486641,1.587799l-2.113068,1.481567l-1.219849,0.506317l-1.366478,-0.493805l0.906532,1.3815l0,0l0,0l0,0l1.979721,0.431366l0,0l0,0l0,0l1.693176,3.169312l-0.086693,1.025208l-1.559769,1.944122l-1.939819,0.568878l-2.499626,-1.694092l0,0l-0.200012,-0.218811l0,0l-0.666534,0.887695l0.813187,1.156494l-1.173141,4.857117l-1.826431,1.112762l-0.459961,-0.268768l0,0l0,0l0,0l0.073326,-0.450134l0,0l-1.16655,-0.781403l0,0l-0.199936,-1.487762l0,0l0,0l0,0l-1.35318,0.631348l-0.953239,1.281494l-1.133141,-0.487549l-0.893234,1.275238l-1.426502,-0.212555l0,0l0,0l0,0l0.739937,-2.906799l2.152988,0.006256l-0.259956,-1.206512l0,0l-0.919914,-0.393799l0,0l1.113266,-4.238312l-1.186508,-0.931458l0.073242,-3.03183l-0.633202,-0.825165l-2.459713,0.550079l1.199886,-1.587769l-1.35318,-0.693909l-0.693295,-1.68158l2.526386,-1.218994l-2.159706,0.631378l0.539925,-1.043976l2.546341,-1.912842l4.232864,-1.700348l-2.606361,1.043976l-5.339325,0.243774l0.279907,-2.500488l2.139755,-1.981628l-2.513012,1.093994l-0.506664,-0.881439l1.079926,-3.075623l2.333035,0.431366l0.846592,-0.956451l1.413116,0.231293l-0.026611,-0.712646l-4.526142,-0.200012l-1.579796,0.793884l-1.079853,-0.331329l-0.18663,-0.650116l-3.019669,0.243835l1.979729,0.743896l0.346649,1.043945l-0.819908,1.862854l-3.092922,1.062714l1.47987,0.162506l0.219887,1.231506l-2.252987,-0.237549l0.333267,1.106445l1.973083,-0.206238l1.679798,2.437927l-0.699951,2.075439l-1.839737,2.081604l0.059944,1.406555l-7.385727,3.131836l-1.72644,1.375305l-6.539139,2.344177l-1.893105,0.087524l-4.132866,-1.606567l-6.319178,-4.513397l-3.719543,-4.407074l-9.205514,-8.1828l-2.319729,-3.12561l0.553306,-1.781647l1.159829,-0.86264l2.039748,2.850525l6.565819,-1.812805l4.619427,-2.081696l1.799829,0.081299l2.699635,-4.669647l1.853121,-1.194031l0.093281,-1.712799l-0.379986,-0.387604l-0.919836,0.512604l-0.279976,2.062897l-2.279741,-0.243774l-5.272585,1.400238l-1.799829,1.569092l-6.765829,-1.350281l-7.612413,-4.269562l-3.09292,-3.913269l-0.333272,-2.475494l4.552756,-3.288147l-3.986145,1.619049l-1.646463,1.994141l-2.533037,-0.337555l0.746584,-0.750122l0.133337,-2.619293l1.106537,-1.500275l0.533201,0.393799l0.479985,-0.881378l0.393285,0.350037l1.419775,-0.606323l0.246644,0.875153l0.466678,-0.531372l2.752926,0.356323l0.586637,-4.725922l0.466607,-0.118744l0.293283,1.400238l0.54658,0.175049l0.819906,-1.13147l0.726627,0.712646l1.26641,-0.606384l1.459832,0.475098l1.513203,-0.58136l3.972769,-0.018768l1.679869,1.494049l3.78614,0.068787l0.866617,-0.381348l0.753166,-1.356506l6.232624,-1.812866l0.506596,0.275055l-0.513321,2.075409l3.166241,0.412567l1.206608,-0.481323l-0.120026,-0.468842l1.019836,-0.775146l1.19323,-0.012512l1.159836,-0.762634l-1.699757,-0.568878l-0.093357,-2.200409l1.299824,-1.000183l2.23975,0.781372l3.279552,-0.918945l2.346401,0.662628l4.619427,-0.806366l1.25983,0.375061z" class="land" id="svg_61"/>
    <path d="m140.977417,47.15773l0.373322,0.962692l1.099884,0.575104l-1.086594,2.60051l2.099777,0.418808l0.059952,1.456558l2.37973,1.844101l-1.093216,3.100616l0.593201,1.525284l0.613251,0.031265l0.706665,1.118958l-1.69989,1.450287l1.213196,0.981445l-0.259964,0.76889l1.886475,2.100418l0,0l1.066544,2.362961l-1.873077,0.062531l-0.686661,-1.400299l-4.372772,-0.212524l-2.333023,-0.831421l-3.592865,1.74408l-1.739807,0.187561l-2.11972,2.838043l-0.439941,3.06308l1.14653,3.381927l-3.479553,1.337738l0.226608,0.525101l0,0l0,0l0,0l-4.099518,-0.881439l-1.999695,-1.250229l0.386635,-2.044128l-2.299759,-1.28775l-1.393173,-1.919128l-1.419769,-0.362564l0,0l-2.199768,-1.494049l0.153366,-2.700531l-2.459724,-1.825363l-0.479904,-0.943939l-1.093239,0.031281l-0.57991,0.900162l-1.473129,0.037521l-0.340004,-1.83786l-2.946274,-5.551086l0.573257,-0.412567l-0.513321,-1.006454l-3.646149,-2.650528l-0.606598,-2.044144l0.353302,-0.687622l2.859657,-1.018967l1.099869,-1.306488l-1.55983,-1.819107l0,0l1.046516,-1.262741l-0.119957,-1.862869l-1.706474,-2.650497l1.153168,-0.337585l1.159912,0.681381l6.272461,-4.444626l4.252892,0.162552l1.533081,0.656372l3.946243,3.33815l3.339554,1.081451l4.752693,-2.462967l2.713013,3.456909l1.033203,2.644272l0.679932,0.175049l0.979843,-0.968964l1.446533,-0.150009l2.05304,-1.387772l0.126709,1.537781l-1.33316,2.700546l0.366592,0.312546l1.299835,-1.137711z" class="land" id="svg_60"/>
    <path d="m129.665466,79.151443l0.006668,0.681381l0,0l-0.799881,2.17543l-2.173096,1.412796l0,0l-2.286316,2.194153l0,0l-0.400002,2.056641l-0.599869,0.087555l0,0l0.059929,10.083176l0.866547,1.856644l-0.139908,2.025391l0,0l0,0l0,0l-1.339882,-0.331329l-1.766487,0.862656l-0.013306,1.931656l-1.546394,1.569016l0.599876,0.943954l1.973068,-0.537628l2.199699,1.781601l2.246407,-1.275223l0,0l1.879807,1.687805l0.419968,1.937897l-0.80661,2.187927l0.673264,1.68782l-2.559708,2.100403l0,0l-1.119843,0.58136l-0.953247,-0.350067l-2.406349,1.43779l-0.146637,0.618866l-1.08651,0.106262l0.759888,-6.795074l-1.413116,-1.187729l-2.806366,1.9254l-1.286514,1.950394l-1.406464,-1.225266l-0.239998,-0.97522l0.533272,-0.293793l-1.813126,-0.487595l-0.333267,2.031662l-0.926559,-0.587616l-0.999893,0.106262l-0.313309,0.612625l0.593292,2.106674l-0.659889,0.606354l-2.359711,-0.193787l-0.706535,-3.688217l1.286453,-0.98143l0.926559,0.193787l-2.359711,-3.025604l-2.946281,-1.856598l-2.119728,-2.375473l-1.059898,-3.925766l0.639938,-0.881424l-1.833092,-1.243988l0.139915,-2.738052l-4.586021,0.106308l-1.779793,-0.7314l-0.493294,-1.325256l-0.873199,-0.30632l-3.426262,0.837662l-0.793221,-1.669067l1.126564,-1.031448l-0.586639,-0.425095l0.399933,-3.056824l-1.153168,0.375061l-0.846512,-0.431335l0.766464,-1.025177l0.140068,-1.631607l0,0l1.779724,0.500137l2.406418,-1.081482l2.492981,1.794098l2.67968,0.512604l0.479912,1.268997l-0.886574,1.206482l0.953239,1.731583l0.973274,-0.293793l0.259949,-1.475281l1.806404,-1.956635l1.75312,0.868912l2.879684,-1.112717l1.226501,1.056458l2.333031,0.112503l2.613007,-1.756577l-0.339996,-1.919144l0.63327,-1.96286l3.692863,0.750137l1.259834,-0.95018l0.333351,-0.781387l-0.573273,-0.70639l1.47979,-1.606598l0.106598,-0.881409l1.613197,-0.118774l0.273315,0.987701l0.519905,0l0.226608,-3.381897l-1.313118,-1.500305l0,0l0.219963,-1.437775l0,0l-0.679909,-1.881607l0,0l1.419769,0.362564l1.393173,1.919128l2.299759,1.28775l-0.386635,2.044128l1.999695,1.250229l4.099518,0.881439z" class="land" id="svg_59"/>
    <path d="m269.241364,154.753632l0.933197,1.206512l0,0l0.253296,0.368774l0,0l0.693207,5.157288l-0.533173,0.968933l0,0l-2.059784,3.969543l-1.086487,0.893921l0.486542,0.781372l0,0l-2.732971,1.087738l0,0l-0.286621,1.556549l0,0l-2.159729,-0.600128l0,0l-0.933197,-0.012512l0,0l0.293213,0.58139l0,0l0.43335,1.262756l0,0l-0.626617,1.087677l-1.673187,0.525116l-1.646362,-0.750122l0,0l-0.259949,-0.106293l0,0l-0.999878,-0.356354l-1.253204,0.97522l0,0l0.06662,0.500122l0,0l0.113312,1.275238l-1.059845,0.225006l-0.559952,-0.531311l0,0l-1.906326,0.375061l0,0l-2.586395,1.662811l0,0l-0.313309,1.319031l0,0l-0.913193,0.856415l-2.033173,-1.000214l-0.19986,-1.41275l-1.259827,0.031219l-1.433228,1.487823l-1.506485,3.013062l0,0l0.613327,1.169006l0.993149,0.112488l0,0l1.033218,0.031281l2.173019,1.925385l0,0l1.806488,0.281311l0,0l3.352859,0.206268l-1.206451,0.906464l-0.44664,1.74408l0,0l1.119888,0.931396l0,0l1.519791,0.450073l0,0l2.126358,1.594086l1.713165,3.64444l-0.219971,0.512604l-0.819916,-0.112518l-1.979721,1.03772l0,0l-1.706512,-1.575287l0,0l-1.619766,-0.243805l0,0l-0.833221,-0.037537l0,0l-0.393265,-0.250031l0,0l-1.099884,-1.412811l-1.00647,-0.368774l0,0l-1.486603,-0.575134l0,0l-0.74649,-0.537598l0,0l-1.179855,0.587616l0,0l0.30658,0.625122l0,0l0.526627,0.868927l0.040039,2.919312l0,0l-1.579849,3.25061l0,0l-0.746597,-0.125l0,0l-1.619781,-1.237793l0,0l-2.299683,-0.425049l-2.033096,-1.093933l-1.713135,0.962677l-0.633194,1.168976l-2.733047,-1.856628l0.526611,-1.462769l0,0l0.30658,-1.206482l-0.613235,-2.037933l0,0l-1.819717,0.94397l-0.47998,-0.350098l-5.279297,0.481354l0,0l-0.56662,0.837677l0,0l-3.639572,-0.568878l-1.406464,-1.562805l0,0l-0.313309,-1.731567l3.332977,-2.494232l0.373245,-1.050232l1.473145,-1.225189l-0.153305,-0.981506l-3.392914,-0.912659l-2.579666,-4.275818l-0.753326,0.281311l-0.046555,-1.469055l0.666534,-0.950195l-0.253296,-1.187744l-0.753235,-0.15625l-0.75325,1.112732l-2.179657,-0.387573l-0.933228,-3.006866l-1.679855,-0.70636l-2.279739,-2.850555l0,0l1.599823,-3.544434l-0.506592,-0.693909l0,0l-0.199936,-1.006439l0,0l1.126495,-0.525116l0,0l1.566422,0.893951l5.326019,0.187531l0.686554,-1.206482l2.759735,1.850342l1.379791,-0.83139l0.986572,0.92514l0.493225,1.662842l2.56636,0.650146l0.093353,-1.206512l1.286438,0l0.886658,-1.47525l1.279785,0.181305l0.493271,1.112701l1.973099,0.73761l0.586563,-1.018951l1.679794,0.187531l0.986572,-1.200195l2.759644,0l0.393295,-1.112762l1.179779,-0.181274l1.279861,-2.869293l1.086578,0l0.693298,0.650146l2.459641,-0.462646l1.086517,1.294037l0,2.031647l2.166428,-0.275055l0.199936,2.219208l1.279861,0.55011l0.786575,-0.368866l0.593185,-1.937836l0.886597,-0.925201l0.693298,0l0.393265,1.018951l1.673172,-1.112701l1.479797,1.112701l0.59317,-1.387787l0.886627,0l1.773132,-6.101166l1.079834,-0.275055l1.186462,-2.131683l2.066437,0.093781l0.099976,-0.925171l0.593292,0l-0.099976,-1.012695l4.406097,1.86908z" class="land" id="svg_58"/>
    <path d="m132.945099,1.230042l1.039871,1.156479l1.239792,-0.931435l1.633163,0.162521l-1.53981,1.294022l-0.073318,0.712631l0.693222,2.287949l1.11319,1.043953l-0.559967,0.831413l2.259781,6.026169l2.05307,0.725151l0.366669,0.700134l1.973007,-0.131287l5.632599,4.319595l-0.33992,1.77533l-3.419525,2.250458l0.873184,0.806396l-0.799881,1.500305l0.986511,2.337936l-1.053238,1.544052l1.59317,2.850555l2.259781,2.081665l0.953171,0.718887l1.879791,0.050018l-0.186691,1.619064l-1.139862,1.268982l2.213074,2.537994l-0.506607,7.851532l-1.393158,-0.043762l-0.233276,0.825165l-0.759964,-0.175018l-0.979843,0.612595l-0.859879,-0.36882l-1.886475,-1.762848l-0.419891,-3.213104l-1.646469,1.35025l-2.359711,0.412582l-0.573242,0.900177l0,0l-1.299835,1.137711l-0.366592,-0.312546l1.33316,-2.700546l-0.126709,-1.537781l-2.05304,1.387772l-1.446533,0.150009l-0.979843,0.968964l-0.679932,-0.175049l-1.033203,-2.644272l-2.713013,-3.456909l-4.752693,2.462967l-3.339554,-1.081451l-3.946243,-3.33815l-1.533081,-0.656372l-4.252892,-0.162552l-6.272461,4.444626l-1.159912,-0.681381l-1.153168,0.337585l1.706474,2.650497l0.119957,1.862869l-1.046516,1.262741l0,0l-2.09304,1.86911l-1.586517,0.406342l-1.073204,1.712814l-0.659882,-1.237732l-1.986458,-0.018738l0,0l-3.759537,-2.225449l-0.779839,0.668884l-1.973083,-0.7314l-1.873077,0.168777l-0.766617,-1.906601l0.753242,-3.469437l-0.753242,0.256302l-0.379906,0.987701l-1.133217,0.256287l-0.893303,-0.61261l-0.713181,-1.862869l-1.313187,-0.24379l0.433273,-1.46904l-1.973083,-0.412582l-1.279861,-1.844116l-1.333076,-0.512589l0.079971,-0.925186l1.133148,-0.18129l0.926559,-1.16272l0.219963,-1.662827l-1.246452,-1.762848l-0.919907,-0.062515l-0.98658,-2.231659l1.493172,-1.537811l2.106339,-0.718887l0.593292,-1.65033l-0.659958,-0.987686l-1.246445,-0.256302l-1.606483,0.500092l-1.679802,-0.418823l1.27314,-3.319397l-1.053177,-1.469025l-1.859764,0.006241l0.186699,-0.875168l2.339676,-2.431717l-0.086693,-1.612823l0.973267,-0.506348l1.759773,0.287544l2.266365,-1.694069l0.933212,-0.050003l2.799637,0.518845l1.679802,1.193985l2.839622,0.156265l1.479858,0.64389l3.159592,-0.087509l1.746468,1.469025l5.086029,0.568863l3.926132,-2.394211l1.659843,0.418823l4.326134,-2.350449l2.83963,0.543846l0.839859,-1.250237l0.086708,-1.350273l1.646385,-0.712631l1.746544,0.518852l0.279892,-1.550293l1.899765,-0.250061l9.118889,-6.988861z" class="land" id="svg_57"/>
    <path d="m129.698807,249.115723l-0.20665,1.40033l1.219849,3.019318l-2.153061,1.794098l-0.51326,2.738037l2.726334,1.781616l-1.553192,0.600067l-2.213005,2.894318l0.913254,3.363129l0.199944,4.938507l-1.35984,1.462769l-1.686447,0.33136l1.399818,0.918884l2.139679,0.175049l1.079926,0.931427l-1.366486,0.637604l0.299942,4.144592l-4.839394,-0.312561l-1.819771,1.512787l1.266541,2.787994l-0.913254,-0.043671l-0.833214,1.750305l2.366379,3.363159l0.213295,1.3815l-0.653221,1.412781l-0.866631,0.387573l-3.872833,-0.80011l-0.46653,1.356445l1.586449,0.375061l0.013298,1.112762l-0.253365,0.887665l-0.786499,0.350067l-0.306656,1.975403l1.393158,1.750305l1.479874,0.206329l-1.326508,1.35025l0.973206,1.706543l2.059708,0.400055l1.126564,-1.581512l2.839615,0.593872l0.279984,-0.750153l1.206535,0.912659l0.113312,1.550323l-1.073196,-0.200043l-1.033287,0.618866l1.25325,2.788086l-0.473343,0.250031l-0.659874,-0.256287l-0.66655,-1.58783l-2.193108,0.318787l-1.499825,-0.687622l-0.293274,-1.625336l-1.486458,0.337585l1.933098,2.975586l-0.939941,1.269012l0.300003,1.193939l2.333046,-0.325012l0.219963,-1.312805l3.27961,0.275085l0.379906,1.612823l2.439774,-0.275085l0.273239,-0.612579l1.839813,-0.275085l0.279922,-1.725311l1.879807,-0.193817l0.033325,0.850128l2.352982,0.325073l-0.353226,2.806824l1.84639,0.88147l2.273026,-0.137543l-0.293289,3.375641l2.159714,0.887665l0.47998,-0.51886l0.006653,1.606598l-1.426514,2.031647l0.253311,2.156677l-1.579712,-0.97525l-1.63324,2.187897l0,0l-4.186081,-0.781311l-0.499939,-0.737671l-1.326569,0.593872l-0.966553,2.181641l-1.513062,-0.09375l-0.519958,1.356506l0.273331,1.200287l0.439926,-0.231323l-0.279984,1.706543l-1.866425,1.300293l-0.013306,0.900208l3.306229,0.243744l0.493286,1.106476l-1.59317,1.925354l-2.41301,0.762634l-0.359947,1.819153l-2.433037,-0.681396l-4.919434,0.168762l-0.833214,2.681763l-2.819656,-0.156281l-1.766418,-1.494019l-0.939873,0.550079l0,0l-2.359711,-2.019135l-1.899765,-0.543854l-0.233253,-1.575317l-1.386589,0.593903l-2.273018,-0.325073l-0.639938,-1.162689l-3.106216,-1.537842l-1.466492,-1.762848l-0.586563,0.156281l-0.79995,-2.10672l-5.326019,-4.269501l-1.659767,0.437592l0,0l-3.226257,-14.108978l-1.659767,-2.813049l-1.679802,-5.282318l0.506592,-0.462585l-0.879921,-1.050171l-0.60659,0.562592l-0.766541,-2.663025l-2.046402,-0.856415l0.046631,-1.050232l0,0l3.006302,-1.319031l-0.073326,-3.92572l0.806602,-0.268799l-0.806602,-2.41922l0.059944,-2.338013l-1.173126,-0.350006l-0.639938,0.381317l-0.246635,-0.356354l0.706596,-0.700073l0,0l2.852997,-0.606354l0.053299,-1.600342l0.993225,-0.500092l0.759888,-2.10672l0.180046,-1.637787l-2.17981,-1.068939l-0.286629,-0.625153l0.47998,-0.587555l-0.339989,-0.862701l-0.953171,-0.256287l0.259949,-0.881439l4.95269,-0.912689l1.626511,-1.600281l1.899689,-0.456329l0.346642,-2.212921l2.099762,0.306274l1.47979,1.181488l1.826447,-2.212952l3.812897,0.256348l-0.00666,-3.313202l-1.033211,-2.131622l0.566536,-0.718933l2.119797,0.625153l1.099808,-0.625153l0.759972,1.212738l3.56617,-0.362518l2.539696,0.600037l0.566605,-0.687592l-0.459946,-0.175018l-0.639938,-2.956848l2.139748,-1.018951l0.746597,-1.212677l1.913055,1.050171l3.132988,-3.069336l0.479904,-1.731598l-0.360016,-1.469055l0.859962,-0.400055l1.573135,0.850159l1.819794,-3.450684l1.779709,-0.70636l0.646599,0.73764l-0.459969,1.118958l1.179855,0.550079l1.633163,-0.325073z" class="land" id="svg_56"/>
    <path d="m114.080765,336.245178l-0.886566,0.875214l-1.553185,0.212494l-0.306595,1.512817l1.773148,0.350037l2.47303,1.394073l-1.719795,1.819061l4.252747,-0.306274l0.233337,2.081635l-1.439796,1.669067l2.493057,0.656372l0.973183,1.168976l-0.973183,2.506775l0.026604,3.875732l1.859764,0.987732l2.926338,-1.719116l1.386505,1.550293l-1.56649,8.114075l2.552986,0.106323l0.579918,0.812622l-1.786377,3.050598l-0.400017,1.831604l-1.219833,1.419006l1.386513,2.069183l-1.066551,1.86908l1.313202,2.312958l-2.453079,3.500702l0,0l-7.072403,-7.501465l-0.06002,-0.775177l1.219917,-0.381287l0.046638,-0.481354l-1.773148,0.500092l-1.253181,-2.300446l-1.733086,-4.138275l-0.973267,-6.432526l0.573334,1.681549l0.966537,0.706421l-0.053368,3.231873l1.686462,0.375061l0.306648,-0.425079l-1.019829,-0.875183l-0.553375,-3.394379l-1.45311,-1.400299l-0.90654,-2.069183l0.346649,1.869171l-0.44664,-0.662659l-7.11248,-18.228546l-0.899803,-0.393829l-1.219917,-2.988068l-3.479561,-4.000793l-1.099876,-0.03125l-4.632729,-9.720612l0,0l1.659767,-0.437592l5.326019,4.269501l0.806602,2.100525l0.57991,-0.156281l1.473145,1.762817l3.106293,1.53775l0.639931,1.16275l2.273026,0.325073l1.386505,-0.593903l0.233261,1.575348l1.899757,0.543854l2.353065,2.02536zm-12.325119,-0.875153l0,0l-0.233337,-0.462555l0.233337,0.462555z" class="land" id="svg_55"/>
    <path d="m63.940365,342.533936l-0.019955,0.043732l-0.080048,-0.087494l0.093349,-0.500092l0.139988,-0.262543l-0.133335,0.806396zm-8.185604,4.819672l-0.126682,0.068756l0.066666,-0.343811l0.066673,-0.118805l0.213306,-0.293762l0.039986,0.09375l-0.046707,0.200012l-0.213242,0.39386zm6.259167,3.419434l-0.053288,0.043762l-0.093357,-0.006287l0.353298,-0.293793l-0.026676,0.087494l-0.179977,0.168823zm13.785023,6.282471l-0.126686,0.200073l-0.079971,-0.206329l0.173325,-0.36261l0.053284,0.156281l-0.019951,0.212585zm-8.158997,23.435791l-0.246643,0.075043l-0.146645,-0.193817l0.799881,-0.618866l0.039986,0.09375l-0.119957,0.362579l-0.100006,0.150024l-0.226616,0.131287z" class="land" id="svg_54"/>
    <path d="m166.367584,243.177094l-2.433044,0.225067l-1.293243,-1.225281l-0.926483,-3.550659l-0.88649,0.193787l0,-0.918945l1.073105,-0.868896l0.373337,-3.281891l-2.359711,-2.456696l-0.966537,-0.175079l-2.219727,1.269043l-4.719437,-2.112946l-3.059586,0.575134l-1.633148,-0.931458l0.426605,-0.656372l-0.673264,-0.343842l-6.219238,-0.70639l-0.046631,0.918945l-0.979858,0.818909l0.239914,2.90686l-1.826447,0.637573l0.106659,2.125427l-1.499741,0.287506l-1.499893,-1.368988l-1.106476,0.437592l0.259964,0.812653l-1.293182,2.625549l0.32663,1.187714l1.406464,1.419037l-0.439911,0.631378l-1.606491,0.387543l-1.153168,1.387787l0.20665,2.281708l-1.526489,-0.112549l-0.906525,1.369019l0.186615,2.150391l0,0l-1.633163,0.325073l-1.179855,-0.550079l0.459969,-1.118958l-0.646599,-0.73764l-1.779709,0.70636l-1.819794,3.450684l-1.573135,-0.850159l-0.859962,0.400055l0.360016,1.469055l-0.479904,1.731598l-3.132988,3.069336l-1.913055,-1.050171l-0.746597,1.212677l-2.139748,1.018951l0.639938,2.956848l0.459946,0.175018l-0.566605,0.687592l-2.539696,-0.600037l-3.56617,0.362518l-0.759972,-1.212738l-1.099808,0.625153l-2.119797,-0.625153l-0.566536,0.718933l1.033211,2.131622l0.00666,3.313202l-3.812897,-0.256348l-1.826447,2.212952l-1.47979,-1.181488l-2.099762,-0.306274l-0.346642,2.212921l-1.899689,0.456329l-1.626511,1.600281l-4.95269,0.912689l-0.259949,0.881439l0.953171,0.256287l0.339989,0.862701l-0.47998,0.587555l0.286629,0.625153l2.17981,1.068939l-0.180046,1.637787l-0.759888,2.10672l-0.993225,0.500092l-0.053299,1.600342l-2.852997,0.606354l0,0l-0.833214,-0.206268l-0.806602,0.92514l0.120033,0.64389l-0.986572,0.493835l-2.506355,-2.850555l-1.219849,0.950134l-0.933205,0.043823l0,0l-0.726563,-0.231323l-0.446648,-1.644073l-2.239677,-2.581757l-1.659843,-5.676056l0.466606,-0.350098l-1.239799,-4.538361l0.066597,-3.050598l-2.259705,-9.189301l-1.339813,-2.963074l-0.60659,-4.169556l-0.999878,-1.550323l-0.466606,-5.100983l0.919907,-0.325073l0.826553,1.250244l0.073318,-0.843872l-1.106537,-1.712891l1.94648,-1.175232l-1.159897,-1.000183l-1.999771,2.244202l-0.686565,-0.450104l0.699871,-1.343964l-0.619896,-3.575745l0.973267,-0.118774l2.632973,1.462799l-1.113197,-1.337738l-2.179733,-0.250061l-0.659889,-0.600098l-1.219841,-6.738831l0.866543,-3.550659l0,0l0,0l0,0l1.433163,0.21875l0.893219,-1.268982l1.126495,0.481323l0,0l0.060013,0.768921l1.046524,0.818878l1.799759,0.156281l0.693283,-0.943909l0,0l0.00666,0l0,0l0,0l0,0l0.459953,0.275024l1.826439,-1.112701l1.173203,-4.857178l-0.813255,-1.156494l0.659882,-0.887665l0,0l0.206665,0.218811l0,0l2.499702,1.694092l1.939751,-0.562653l1.559761,-1.944122l0.086693,-1.025208l-1.699829,-3.169312l0,0l0,0l0,0l-1.973076,-0.437622l0,0l0,0l0,0l-0.906532,-1.375244l1.366486,0.48761l1.219841,-0.506409l2.113075,-1.481506l0.486633,-1.58783l1.333153,-0.837646l2.613007,-0.131287l0.573265,-1.112732l0,0l0,0l0,0l-3.719543,-0.037506l-2.492981,0.850189l0,0l0,0l0,0l-0.819901,-1.769104l1.453178,-0.456329l-0.573334,-2.688019l2.306419,-1.143982l3.192924,-0.081238l0.866547,-0.575134l0,0l2.559715,-1.000183l-0.739929,0.343781l-0.393288,2.012909l1.746391,1.719086l5.112717,0.825165l1.893105,2.000366l0,0l3.212952,1.225281l0,0l8.132309,0.456299l0,0l1.99305,0.050049l0.793282,2.387939l-0.219963,0.975189l0.673203,0.631378l1.826431,0.262573l0,0l1.133217,-0.412598l0,0l1.219849,-1.03772l1.639809,-0.074982l0.426613,-2.219208l1.946404,-1.637817l0,0l-0.033333,-1.606567l1.033218,-0.393799l0,0l0.879921,0.03125l1.646469,-1.194l0,0l0.693222,-0.693878l1.033203,-0.049988l0,0l1.059822,0.67511l3.512894,-0.681396l0,0l1.106613,1.362793l0.406586,1.68158l-2.306351,-0.062531l0.846512,1.887848l1.126495,0.506348l2.51973,-0.081238l0,0l1.493103,-0.375061l0.759964,0.393799l0,0l3.466171,-1.512787l0,0l0.546646,-0.900177l1.48645,-0.39386l0,0l0.526627,-0.106201l0,0l1.179855,0.112488l0,0l3.299576,1.581543l3.972855,-0.61261l0,0l0.153275,-1.06897l0,0l2.113083,-0.350098l1.7798,-1.068909l0,0l0.386551,-0.631378l1.626511,1.00647l0,0l0.879852,-0.143799l0,0l1.16655,0.049988l-0.053375,1.450287l0.859894,0.51889l1.033295,-0.187592l0,0l1.199814,-0.918884l1.099884,0.174988l1.11319,0.97522l1.786377,-0.168762l2.093033,-1.519043l0,0l1.179932,0.018738l0,0l2.479675,3.475647l2.992996,0.600159l0,0l0.439926,0.125031l0,0l-1.639816,1.462769l0,0l-1.559769,1.35025l0.433273,2.825531l0,0l0.646576,-0.156281l0,0l0.699951,3.694519l-0.759964,0.375031l0,0l-0.339905,0.456329l0,0l0.593201,0.531372l0.913193,-0.187561l0,0l0.213318,3.300659l0,0l-2.939575,1.637848l0.026627,1.293976l0,0l2.166428,-0.112518l-0.206665,2.250427l0,0l-0.906525,0.731415l0,0l-1.226501,1.994141l0.726563,0.325043l0,0l0.686493,-0.112518l0.313385,-0.743896l0,0l2.279663,1.769104l0,0l-0.293274,1.156464l0,0l3.399582,1.487793l-0.813171,2.144196l-2.246414,1.637817l-1.939819,-1.325287l-0.379913,-1.012695l0,0l-1.306534,0.818878l0,0l-1.14653,1.150269l0,0l-0.939865,2.275421l0,0l-0.359955,0.625092l0,0l-0.30658,1.544067l0,0l1.013184,1.250305l-1.479797,0.900146l0,0l0.259964,0.606354z" class="land" id="svg_53"/>
    <path d="m332.473389,156.554016l-1.093201,-0.925232l-4.012756,-1.525269l-7.612427,0.687622l-3.019592,-0.943909l-5.752563,0.806396l-6.259308,-0.075012l-5.705933,-1.994141l-1.579712,0.087524l-0.473358,-1.081482l0.47995,-2.112915l0,0l2.13974,-1.137695l-0.846588,-1.994141l1.339844,-2.112915l1.406494,-0.968933l3.432892,-0.800171l1.633179,0.218811l1.126495,0.850159l2.179718,-0.168762l3.66626,0.725128l-0.060089,0.887695l2.312988,0.281281l0.373352,1.28772l1.753174,-1.500244l2.019714,-0.493835l1.086517,-1.975433l1.966431,-0.737625l1.466492,-0.300049l1.793182,0.937668l2.832947,-0.793884l1.293091,0.175018l-1.146484,1.375275l-0.106689,4.082031l3.432953,-1.13147l2.679657,2.638031l-0.566528,0.956451l0.953156,1.181427l1.019867,0.131317l0.979858,1.081421l0.206696,1.569092l-3.406219,1.312744l-1.933197,1.500305z" class="land" id="svg_52"/>
    <path d="m363.236328,150.715363l-1.139984,3.088104l1.959808,0.97522l0.186615,1.519012l-1.599731,3.819489l-1.999786,2.506744l-2.159698,4.144562l-2.273102,6.069946l-3.25293,-1.456543l-1.193146,0.287537l-0.773193,-0.906372l-1.0466,-0.212585l-2.592987,0.73764l-1.533142,-1.737823l-0.82666,0.712646l0,0l-2.792877,-0.162537l-1.879761,-0.85022l0.559845,-3.938202l0,0l0.753235,-4.469635l2.57309,-2.675537l1.426483,-3.819458l1.099823,-1.018982l0,0l1.306549,0.300049l0.146698,0.862671l0.37326,-0.237518l2.659668,-3.925751l-0.353333,-0.825195l3.512909,-0.312561l1.299805,0.587646l3.566193,0.024963l2.699615,-2.487976l0.473358,0.100037l-0.399963,2.650513l1.21994,0.650116z" class="land" id="svg_51"/>
    <path d="m140.617462,130.892761l2.059708,0.843903l0,0l1.206543,-0.21254l0,0l1.719772,-0.081253l0,0l3.219604,2.019135l0,0l1.786438,2.875595l0,0l0.006668,2.831772l-2.006424,1.869141l0.086624,1.456543l0,0l-1.166458,3.069336l-3.599609,3.400635l0,0l-1.926361,0.006256l-2.17308,2.581757l1.433151,2.725525l0,0l-0.246643,1.043945l0,0l-0.833221,2.081665l-1.426483,0.968933l0,0l-0.733276,0.650146l0,0l0.926559,2.156677l0,0l0.099991,3.013062l0,0l-0.359955,0.437592l1.766418,0.762665l0.0867,0.637604l0,0l0.926559,0.393829l0.753235,-0.881439l0,0l2.099777,1.506561l0,0l2.186386,1.025208l0,0l2.672958,-2.563049l-1.099808,-2.863037l0,0l-0.333359,-0.400085l-1.506454,0.568878l-0.593292,-0.556366l-0.006668,-3.275635l-1.099808,-1.356506l0,0l-1.773148,-5.363556l2.093048,-1.537811l0,0l0.333328,0.23761l0,0l-0.499939,0.525085l0.753235,0.518829l0.506592,0.081268l0.333282,-0.887665l0,0l1.419846,-2.094177l0.839859,0.400085l0.259964,1.762848l-1.346466,0.331299l-0.333267,0.725159l0.513245,2.400452l1.839752,-1.850342l0,0l0.42662,2.162903l1.679794,0.475098l1.846451,-0.331299l0,0l0.413254,-1.362793l0,0l-1.093155,-0.556335l0,0l-0.086624,-0.806396l0,0l1.006531,-0.162537l1.686447,1.437775l-1.006622,1.28775l0.839951,0.718903l0.759888,0.074982l0.999878,-1.125214l3.526199,1.181488l0.246704,-1.68158l0,0l2.59964,-1.937866l3.099655,-0.97522l0.519882,0.462616l0,0l1.479797,2.550507l-2.319656,1.800354l0.753174,0.956421l0,0l1.679871,-0.168793l0,0l1.339798,-0.806396l2.519653,0.068756l0,0l0.673264,0l-1.013184,-1.037689l2.59964,-0.575104l0,0l-1.333069,3.213104l0,0l1.513031,-0.087494l0,0l2.013077,-0.006287l0.673264,0.637634l1.426498,-0.250031l0.699875,-3.406921l2.479736,0.350067l0,0l0.579987,-0.725128l1.259766,-0.006287l0.260025,1.762878l2.179733,0.956421l1.766418,-0.250031l0.673187,2.319183l3.106308,0.625092l1.939743,1.987915l-0.079971,0.718903l0,0l1.086502,0.156219l0,0l-0.006577,-1.756561l0.926483,0.39386l0,0l0.839951,0.393799l1.513184,-0.406281l0,0l0.713181,-0.043793l0.879852,1.075226l-0.833206,0.80014l0,0l0.593292,2.631775l0,0l-0.120041,2.825562l0,0l-0.753235,-0.075043l0,0l1.979736,2.731812l0,0l0.353287,0.250031l0,0l-1.306381,0.443817l-0.493362,1.569092l-0.986496,-0.093811l-0.586655,1.294006l-0.693222,-0.831421l-3.446289,-0.09375l-1.579727,-0.831421l-3.746155,0.281311l-2.166428,-1.206451l-0.693298,0.650085l1.186523,1.475311l-1.579803,2.131683l0.300003,0.73761l0.686569,0.64389l2.073013,-0.462585l0.686569,0.743896l0.493301,-0.462616l0.886566,1.294006l0.693283,-0.093781l1.873154,2.125427l-0.200073,2.494202l-2.559647,0.556396l-0.793304,0.831421l-0.293274,1.662811l-1.279861,1.387726l0.099991,1.200317l-1.973007,0.83136l-0.099991,0.837677l-1.673157,0.368805l-0.593277,0.737671l-1.279861,-0.462585l-2.173019,0.73761l-1.079834,-0.181274l0.099991,2.681793l-1.086578,0.087494l-0.593216,1.112732l0.493286,0.368805l-0.193359,1.200226l-1.579788,-0.368774l-0.100006,1.662811l-1.079865,0.275055l0.393311,3.144348l-1.779816,0.462585l0.593292,2.775543l-1.206543,2.131683l0,0l-0.30658,-0.087524l0,0l-2.992996,-0.600159l-2.479675,-3.475647l0,0l-1.179932,-0.018738l0,0l-2.093033,1.519043l-1.786377,0.168762l-1.11319,-0.97522l-1.099884,-0.174988l-1.199814,0.918884l0,0l-1.033295,0.187592l-0.859894,-0.51889l0.053375,-1.450287l-1.16655,-0.049988l0,0l-0.879852,0.143799l0,0l-1.626511,-1.00647l-0.386551,0.631378l0,0l-1.7798,1.068909l-2.113083,0.350098l0,0l-0.153275,1.06897l0,0l-3.972855,0.61261l-3.299576,-1.581543l0,0l-1.179855,-0.112488l0,0l-0.526627,0.106201l0,0l-1.48645,0.39386l-0.546646,0.900177l0,0l-3.466171,1.512787l0,0l-0.759964,-0.393799l-1.493103,0.375061l0,0l-2.51973,0.081238l-1.126495,-0.506348l-0.846512,-1.887848l2.306351,0.062531l-0.406586,-1.68158l-1.106613,-1.362793l0,0l-3.512894,0.681396l-1.059822,-0.67511l0,0l-1.033203,0.049988l-0.693222,0.693878l0,0l-1.646469,1.194l-0.879921,-0.03125l0,0l-1.033218,0.393799l0.033333,1.606567l0,0l-1.946404,1.637817l-0.426613,2.219208l-1.639809,0.074982l-1.219849,1.03772l0,0l-1.133217,0.412598l0,0l-1.826431,-0.262573l-0.673203,-0.631378l0.219963,-0.975189l-0.793282,-2.387939l-1.99305,-0.050049l0,0l-8.132309,-0.456299l0,0l-3.212952,-1.225281l0,0l-1.893105,-2.000366l-5.112717,-0.825165l-1.746391,-1.719086l0.393288,-2.012909l0.739929,-0.343781l-2.559715,1.000183l0,0l-2.086388,0.743866l-0.906609,-0.393768l0,0l-0.733276,-2.175476l0.659958,-1.137695l0,0l-1.159821,-2.925568l0,0l0.120026,-1.362762l0,0l0.659889,0.543884l0,0l1.993111,-0.543884l0,0l-0.666611,-0.737671l-1.293167,0.325104l-1.126564,-1.00647l0.173325,-0.76889l0,0l4.61277,-1.500305l1.66642,-3.09436l-0.09993,-0.556366l-1.259834,0.312592l0,0l-0.546646,-2.319214l0.77327,-0.656372l0.893219,0.312561l0,0l2.326378,-0.950195l0,0l-1.206543,-0.731384l0,0l0.106659,-1.081482l0,0l0.833214,-1.19397l3.432846,-1.437744l0.839928,-0.875183l0,0l0.666611,-2.144165l-0.426613,-1.90036l1.079849,-2.069183l0,0l-0.753166,-0.950195l0,0l-0.766609,-2.225403l-1.339882,0.162506l-0.25322,-0.400055l1.75312,-2.394257l-1.926437,-0.787628l1.166473,-2.006653l0,0l0.586563,-0.881409l0.506592,0.881409l0,0l0.420044,0.237549l0,0l1.08651,-0.325073l0.253296,-0.64386l0,0l-0.0867,-0.956451l0,0l-1.433151,-0.237549l0,0l-0.926559,-1.750336l0,0l0.333336,-0.806396l0,0l0.593224,0.637634l0,0l1.846466,1.112732l1.259827,-0.162537l0.246651,-0.881409l0,0l0.833206,-1.450317l0,0l2.139755,0.03125l-0.626625,1.087708l0,0l-0.666542,0.081299l0.339989,1.118958l0,0l1.759705,0.312561l-0.666542,0.406342l0,0l-0.759888,0.400055l-0.753311,-0.793884l-0.666534,1.437744l0,0l3.439568,0.94397l0,0l4.532722,-0.656372l0,0l0.339996,1.83783l0,0l1.093231,0.793945l-0.166679,0.718872l0,0l-2.259705,1.600281l0,0l0.599869,4.694702l0,0l-0.753235,1.118958l0,0l-0.673264,-0.475098l-2.093033,0.243835l-1.173141,1.037659l0.673195,0.237549l0,0l2.51973,2.131653l0.586563,-1.19397l1.006538,-0.481323l0,0l2.013138,-0.481354l0.666534,-1.831635l0,0l1.339806,-0.80014l0.413322,-0.956421l0,0l0.459953,-1.58786l2.812943,0.618896l0,0l2.599701,0.462585l1.339798,-0.956421l0,0l0.753319,-0.006226l-0.073402,1.750305l1.173203,0.631378l1.093239,-0.162506l0,0l0.413239,-0.875153l-0.839859,-1.58786l-0.013374,-3.506958l0,0l1.093224,0.231323l0.506607,1.118958l0.586563,-0.162537l0.326607,-2.262939l0,0l-1.433075,-1.669067l0,0l-0.83329,0.181305l0,0l-0.613251,-0.243805l0.18663,-0.950165l1.33989,-0.406342l0,0l-0.253296,-1.275208l0,0l-0.339996,-1.119019l0,0l0.419968,-0.562622l1.006531,0.231323l3.019585,-0.812683l0,0l1.593117,0.312561l0,0l1.339867,-1.606537l0,0l-0.599937,-2.888062l-0.419907,-0.400116l-0.919899,0.406342l0,0l-0.666618,1.206512l-5.539253,-0.056274l0,0l-3.446289,-2.150391l0,0l0.160011,-2.338013l0,0l-0.093346,-3.463135l0,0l2.559715,-1.168976l0.213318,-0.693878l5.352631,-3.225632l0,0l2.033089,-1.80658l0,0l0.433281,0.018738l0,0l5.93261,-2.738052l0,0l0.20665,-0.212524l0,0l0.90654,-1.269012l2.526306,-0.956421l0.193359,-0.79393l0,0l1.699753,-0.618851l0,0l0.853241,-0.431351l0,0l1.393173,0.456345z" class="land" id="svg_50"/>
    <path d="m340.878998,165.311981l-0.559845,3.938202l1.879761,0.85022l2.792877,0.162537l0,0l1.299896,5.207275l-0.473236,5.994873l-1.133209,2.963104l-2.266296,-0.406342l-0.640106,4.600891l1.43988,6.207458l-0.579895,1.062683l-1.48642,-0.231293l-0.766632,2.144165l-0.906555,0.600159l-2.986267,-2.056671l-0.413239,1.781586l-1.026642,0.587646l-1.239777,-10.25827l-1.846497,-2.944336l-0.346619,-4.019501l0.506561,-0.787659l-1.61969,-6.03241l0,0l0.813263,-3.819489l-0.300079,-3.269409l0,0l1.726501,0.012512l0.086639,1.16272l0.726624,0.137512l1.953033,-1.500244l1.739838,-3.682007l1.253082,1.937897l2.373047,-0.343811z" class="land" id="svg_49"/>
    <path d="m359.936676,134.368439l0,0l4.306091,0.350067l4.526154,2.344208l0,0l0.193298,2.219177l1.159821,2.806793l-1.339813,1.287781l-0.966553,3.031799l-1.519775,2.175446l-3.05957,2.131653l0,0l-1.21994,-0.650116l0.399963,-2.650513l-0.473358,-0.100037l-2.699615,2.487976l-3.566193,-0.024963l-1.299805,-0.587646l-3.512909,0.312561l0.353333,0.825195l-2.659668,3.925751l-0.37326,0.237518l-0.146698,-0.862671l-1.306549,-0.300049l0,0l-0.519928,-0.293793l0.279999,-1.925385l-1.706482,-1.887878l2.379761,-1.675323l2.766296,-3.800751l1.206451,-0.137512l0.0867,1.794128l2.473022,-0.900208l0.513184,-4.019516l0,0l2.393127,-3.238144l0,0l1.286499,-2.469208l0.766541,1.512772l1.279877,-1.744049l0,-0.175064z" class="land" id="svg_48"/>
    <path d="m254.269913,195.586609l0.193268,0.518799l4.092789,1.456604l-0.226593,1.744049l0.579895,0.70639l0.699951,-0.006226l0.87326,-1.456543l1.07312,0.262573l-0.106567,1.018921l0.746521,0.831421l2.406342,0.900146l0.426636,2.244202l0,0l-5.012726,1.400269l-3.206238,3.138123l-0.606598,2.431702l1.72644,3.900757l-0.966553,0.787689l0.653259,0.83139l1.179932,0.318787l-3.686234,2.500519l-0.52002,1.344025l1.153214,-0.562653l-0.006638,0.681396l-2.053055,1.906586l-2.23967,0.906464l-0.913315,2.60675l-3.072906,-1.218964l2.173019,1.481506l-2.699646,1.275269l-9.665451,2.863037l-0.273254,-0.456329l1.613052,-0.51886l0.353287,-1.400238l-1.586456,-0.918915l-3.012863,2.206635l-1.553253,3.156891l0.486694,0.031281l1.213211,-1.956665l1.793015,-0.36261l0.373276,0.20636l-0.346649,0.656372l-1.226501,0.206299l0.506592,0.356293l-6.145782,4.632111l-1.233215,1.49408l-0.873276,-0.081268l0,0l-2.193039,-0.600128l-3.859467,4.600922l-2.899643,0.481293l-1.173203,-0.556335l-1.233154,0.375061l-1.439789,-0.368805l0.059937,-2.306671l-0.653229,-0.556366l-0.193359,0.625092l-1.633163,-2.525513l-0.746506,0.350098l-0.813263,1.562805l-1.039856,0.562622l-1.206467,-0.556335l-0.553314,0.506317l1.373138,1.425293l-0.519974,0.625153l-1.559753,0.818878l-1.759781,-0.118774l-1.359818,1.625275l0.846588,1.737854l-0.219971,1.77533l-1.599884,0.475098l-1.43309,-0.868927l-3.053009,2.625549l-1.406464,-3.413177l-1.206467,-0.337585l-0.913177,1.087738l-0.899963,3.238129l0.52655,1.612823l-1.173126,1.243958l-1.953125,-1.106476l-4.559402,2.125458l-0.646591,1.056458l-2.666306,0.631378l0,0l0.993164,-1.225281l0,0l0.439987,-0.956421l0,0l0.633286,-3.431885l2.879532,-1.962891l0,0l2.406433,-2.806793l-0.18663,-1.018951l0,0l3.486282,-2.119171l0.953094,-1.562836l-0.473267,-2.544189l0,0l-0.553223,-2.087952l0.20665,-2.250427l-2.059769,-1.25647l0,-2.756775l0,0l-0.066666,-1.10025l-1.33316,-1.031464l0,0l-1.199814,-0.668884l0,0l-0.060089,-1.806549l1.179932,-0.793915l0.406662,0.387543l0,0l0.793152,0.750183l0,0l2.539703,0.231262l0,0l0.439896,-0.043793l0,0l2.046417,2.363037l0,0l2.833038,-0.243805l0,0l0.379913,0.862671l0,0l1.513123,-1.06897l0,0l-0.633118,-2.181702l-1.119919,0.450073l-2.7397,-1.212677l0,0l0.073318,-2.263l0,0l0.173325,-1.281494l0,0l-0.306595,-1.187683l0,0l-1.119904,-5.882416l0,0l0.026672,-0.575104l0,0l1.173218,0.568848l0,0l0.999878,0.018768l0.373245,-1.737854l1.67981,-2.638031l0,0l6.559158,0.281311l0.913193,-0.76889l0,0l1.033218,-2.550507l1.526489,0.256287l0.153366,-1.468994l0,0l-0.793289,-1.081451l1.826447,-1.875397l0,0l0.073318,-1.944092l0,0l0.719894,-0.156311l0,0l0.673279,-0.756378l-0.339935,-1.369019l0,0l-0.353287,-0.875153l0.539917,-1.631592l0.833298,-1.231476l1.079834,-0.112518l0,0l1.86644,-1.631592l1.166473,-0.049988l0,0l0.893234,-1.169006l0,0l0,0l0,0l1.406464,1.562805l3.639572,0.568878l0,0l0.56662,-0.837677l0,0l5.279297,-0.481354l0.47998,0.350098l1.819717,-0.94397l0,0l0.613235,2.037933l-0.30658,1.206482l0,0l-0.526611,1.462769l2.733047,1.856628l0.633194,-1.168976l1.713135,-0.962677l2.033096,1.093933l2.299683,0.425049l0,0l1.619781,1.237793l0,0l0.746597,0.125l0,0l1.579849,-3.25061l0,0l-0.040039,-2.919312l-0.526627,-0.868927l0,0l-0.30658,-0.625122l0,0l1.179855,-0.587616l0,0l0.74649,0.537598l0,0l1.486603,0.575134l0,0l1.00647,0.368774l1.099884,1.412811l0,0l0.393265,0.250031l0,0l0.833221,0.037537l0,0l1.619766,0.243805l0,0l1.706512,1.575287z" class="land" id="svg_47"/>
    <path d="m193.977463,269.88858l-0.646576,-0.031281l0,0l-0.266693,-0.775146l1.219849,0.731384l0,0l-0.30658,0.075043zm-33.035919,61.59317l-0.159943,0.631439l0,0l-0.286636,-0.418884l0.446579,-0.212555zm-2.459702,0.562653l-0.359894,-0.149994l0.446594,-0.293823l-0.0867,0.443817zm-0.71991,0.362549l-0.286636,-0.64389l0,0l0.313324,-0.118744l0,0l-0.026688,0.762634zm2.826324,0.368835l-0.406601,1.187744l0,0l-1.899765,-0.531372l0.879929,-1.418976l1.426437,0.762604zm-2.592987,1.256531l-0.459885,0.018707l0,0l-0.260025,-0.42511l0.71991,0.406403zm2.039749,0.318787l-0.246643,0.775116l0,0l-0.886566,-0.331299l0.139984,-0.537628l0.993225,0.093811zm-58.246033,0.83139l-0.026688,0.187531l0,0l-0.233261,-0.462555l0,0l0.259949,0.275024zm58.90593,9.958221l-0.159958,2.212891l0,0l-1.673141,-1.556549l1.133209,-0.987671l0.69989,0.331329z" class="land" id="svg_46"/>
    <path d="m118.840187,71.406204l0.679909,1.881607l0,0l-1.166481,-0.118774l-0.906601,0.756393l1.333153,1.106461l0.519966,-0.306305l0,0l1.313118,1.500305l-0.226608,3.381897l-0.519905,0l-0.273315,-0.987701l-1.613197,0.118774l-0.106598,0.881409l-1.47979,1.606598l0.573273,0.70639l-0.333351,0.781387l-1.259834,0.95018l-3.692863,-0.750137l-0.63327,1.96286l0.339996,1.919144l-2.613007,1.756577l-2.333031,-0.112503l-1.226501,-1.056458l-2.879684,1.112717l-1.75312,-0.868912l-1.806404,1.956635l-0.259949,1.475281l-0.973274,0.293793l-0.953239,-1.731583l0.886574,-1.206482l-0.479912,-1.268997l-2.67968,-0.512604l-2.492981,-1.794098l-2.406418,1.081482l-1.779724,-0.500137l0,0l-9.145576,-0.343796l1.40654,-2.663025l0,0l0.173332,-1.481537l-1.186584,-1.675323l0.879921,-1.306503l1.346527,-1.081451l0.599869,0.100021l0.179977,-1.237747l2.613014,-1.744095l-0.273254,-0.556366l0.739853,-1.181458l0.639938,0.024994l0.033325,-0.587616l2.366371,-1.612823l0.273323,-1.10022l0.879921,0.306305l0.979858,-0.725098l-0.993233,-0.618896l-0.953247,0.76889l-0.646584,-0.787643l0.086708,-2.000381l1.793098,-2.800537l-1.046516,-0.625122l0.479912,-0.993958l-1.139801,-2.325455l0.533195,-1.587799l2.09304,-1.944138l1.366562,0.043762l0.866547,-1.43779l0.726555,-0.225037l1.079849,0.556351l1.526512,-0.812637l0.659882,0.218781l0.419968,-0.731369l0.599945,0.443802l1.6931,-2.225418l-0.706596,-1.662811l0,0l1.986458,0.018738l0.659882,1.237732l1.073204,-1.712814l1.586517,-0.406342l2.09304,-1.86911l0,0l1.55983,1.819107l-1.099869,1.306488l-2.859657,1.018967l-0.353302,0.687622l0.606598,2.044144l3.646149,2.650528l0.513321,1.006454l-0.573257,0.412567l2.946274,5.551086l0.340004,1.83786l1.473129,-0.037521l0.57991,-0.900162l1.093239,-0.031281l0.479904,0.943939l2.459724,1.825363l-0.153366,2.700531l2.199768,1.494049z" class="land" id="svg_45"/>
    <path d="m79.898399,82.414581l-1.40654,2.663025l9.145576,0.343796l0,0l-0.140068,1.631607l-0.766464,1.025177l0.846512,0.431335l1.153168,-0.375061l-0.399933,3.056824l0.586639,0.425095l-1.126564,1.031448l0.793221,1.669067l3.426262,-0.837662l0.873199,0.30632l0.493294,1.325256l1.779793,0.7314l4.586021,-0.106308l-0.139915,2.738052l1.833092,1.243988l-0.639938,0.881424l1.059898,3.925766l2.119728,2.375473l2.946281,1.856598l2.359711,3.025604l-0.926559,-0.193787l-1.286453,0.98143l0.706535,3.688217l2.359711,0.193787l0.659889,-0.606354l-0.593292,-2.106674l0.313309,-0.612625l0.999893,-0.106262l0.926559,0.587616l0.333267,-2.031662l1.813126,0.487595l-0.533272,0.293793l0.239998,0.97522l1.406464,1.225266l1.286514,-1.950394l2.806366,-1.9254l1.413116,1.187729l-0.759888,6.795074l1.08651,-0.106262l0.146637,-0.618866l2.406349,-1.43779l0.953247,0.350067l1.119843,-0.58136l0,0l-0.166679,1.425278l1.899765,5.126007l2.966316,2.212921l-0.039993,1.037689l0,0l-1.806396,1.056473l0,0l-0.400024,0.287552l0.953247,0.687622l2.399689,0.156296l0.039993,0.531342l-4.092796,1.581573l-0.093346,1.844116l0,0l3.859528,-2.250443l0,0l1.533157,-0.168762l0,0l2.186386,0.362534l1.713135,-0.7314l0,0l1.74646,0.081284l0,0l-0.226608,0.725128l0,0l-0.260025,0.631393l0,0l-1.699753,0.618851l0,0l-0.193359,0.79393l-2.526306,0.956421l-0.90654,1.269012l0,0l-0.20665,0.212524l0,0l-5.93261,2.738052l0,0l-0.433281,-0.018738l0,0l-2.033089,1.80658l0,0l-5.352631,3.225632l-0.213318,0.693878l-2.559715,1.168976l0,0l0.093346,3.463135l0,0l-0.160011,2.338013l0,0l3.446289,2.150391l0,0l5.539253,0.056274l0.666618,-1.206512l0,0l0.919899,-0.406342l0.419907,0.400116l0.599937,2.888062l0,0l-1.339867,1.606537l0,0l-1.593117,-0.312561l0,0l-3.019585,0.812683l-1.006531,-0.231323l-0.419968,0.562622l0,0l0.339996,1.119019l0,0l0.253296,1.275208l0,0l-1.33989,0.406342l-0.18663,0.950165l0.613251,0.243805l0,0l0.83329,-0.181305l0,0l1.433075,1.669067l0,0l-0.326607,2.262939l-0.586563,0.162537l-0.506607,-1.118958l-1.093224,-0.231323l0,0l0.013374,3.506958l0.839859,1.58786l-0.413239,0.875153l0,0l-1.093239,0.162506l-1.173203,-0.631378l0.073402,-1.750305l-0.753319,0.006226l0,0l-1.339798,0.956421l-2.599701,-0.462585l0,0l-2.812943,-0.618896l-0.459953,1.58786l0,0l-0.413322,0.956421l-1.339806,0.80014l0,0l-0.666534,1.831635l-2.013138,0.481354l0,0l-1.006538,0.481323l-0.586563,1.19397l-2.51973,-2.131653l0,0l-0.673195,-0.237549l1.173141,-1.037659l2.093033,-0.243835l0.673264,0.475098l0,0l0.753235,-1.118958l0,0l-0.599869,-4.694702l0,0l2.259705,-1.600281l0,0l0.166679,-0.718872l-1.093231,-0.793945l0,0l-0.339996,-1.83783l0,0l-4.532722,0.656372l0,0l-3.439568,-0.94397l0,0l0.666534,-1.437744l0.753311,0.793884l0.759888,-0.400055l0,0l0.666542,-0.406342l-1.759705,-0.312561l0,0l-0.339989,-1.118958l0.666542,-0.081299l0,0l0.626625,-1.087708l-2.139755,-0.03125l0,0l-0.833206,1.450317l0,0l-0.246651,0.881409l-1.259827,0.162537l-1.846466,-1.112732l0,0l-0.593224,-0.637634l0,0l-0.333336,0.806396l0,0l0.926559,1.750336l0,0l1.433151,0.237549l0,0l0.0867,0.956451l0,0l-0.253296,0.64386l-1.08651,0.325073l0,0l-0.420044,-0.237549l0,0l-0.506592,-0.881409l-0.586563,0.881409l0,0l-1.166473,2.006653l1.926437,0.787628l-1.75312,2.394257l0.25322,0.400055l1.339882,-0.162506l0.766609,2.225403l0,0l0.753166,0.950195l0,0l-1.079849,2.069183l0.426613,1.90036l-0.666611,2.144165l0,0l-0.839928,0.875183l-3.432846,1.437744l-0.833214,1.19397l0,0l-0.106659,1.081482l0,0l1.206543,0.731384l0,0l-2.326378,0.950195l0,0l-1.37986,-0.087524l0.033333,1.912872l-0.673264,-0.362579l0,0l-0.739861,-1.231476l-1.473213,0.137512l-0.139915,-1.056427l0,0l-2.086456,-1.406555l-0.533203,0.381348l-0.739929,-0.425049l0,0l-0.879852,-0.981506l0,0l-2.613083,-0.412537l0,0l0,0l0,0l0.326614,-1.49408l-0.539925,-0.73761l0,0l-0.873199,-0.056274l-0.673264,-1.237732l-1.74646,-0.856445l0,0l-0.406593,-0.987671l0.999886,-1.012695l-0.346657,-1.931641l0,0l0,0l0,0l-0.60659,-0.618835l-1.606407,1.206451l-2.01313,-1.912872l0,0l0,0l0,0l-0.206589,-0.812683l0.933212,-1.637817l-0.553307,-2.375458l0,0l0,0l0,0l-1.606476,0.206329l-0.866547,1.575317l-2.346409,0.149994l-0.806526,-0.487579l0,0l-0.40659,-0.812622l0,0l-5.632607,-1.437836l0,0l0,0l0,0l-0.006729,-0.937714l0,0l-1.613125,0.075073l-0.39994,-0.743896l0,0l-1.279861,-0.368835l-4.619419,0.806396l-2.352989,-0.662598l-3.279625,0.918915l-2.23975,-0.781372l-2.053055,-3.713257l-0.699871,-2.950592l-2.95966,-3.650696l-0.159943,-4.157043l-4.766144,0.0625l-2.666298,-3.088074l-0.37998,-2.494278l1.086578,-2.294174l-0.086624,-4.394592l-1.393244,-0.61261l-3.432838,0.099991l-4.152893,-2.23793l0.006725,-3.58194l1.019913,-2.556747l5.879251,-5.432312l1.91972,-4.007019l2.866306,-2.512985l1.959776,-0.400101l0.833206,0.331345l1.299816,1.312729l1.053173,2.794296l1.93317,0.431366l5.319294,-2.069183l5.272728,-0.393829l3.266251,-1.275238l0.493282,-2.4505l3.432915,-3.344376l1.606407,-4.457138l1.133141,-1.444l7.619068,-3.838257l4.506119,-7.751511l1.726517,-5.657364l5.332596,-1.831573l2.319725,-1.750366l-0.15995,0.350067z" class="land" id="svg_44"/>
    <path d="m280.813232,112.351669l2.70636,1.481522l0.606537,1.937881l-0.43335,2.575485l-1.106415,2.225433l0.479919,1.812881l1.606476,1.425262l-1.459839,0.893921l-0.78656,1.531555l0,0l-2.233093,-0.331314l-2.086304,1.487793l-5.832642,-1.200241l0,0l0.626617,-5.488571l1.786407,-3.588196l0.013336,-0.962692l-0.906586,-0.837662l0.219971,-0.606369l3.446228,-0.418839l3.352936,-1.937851z" class="land" id="svg_43"/>
    <path d="m164.334549,312.384308l1.94632,0.450073l1.193237,1.606598l-1.266556,7.451416l-1.313187,3.913239l-3.959473,5.669891l0,0l-0.446564,0.212555l0.286621,0.418793l0,0l-0.193283,0.668915l0,0l-1.426498,-0.762604l-0.87999,1.418976l1.899826,0.531372l0,0l-0.146652,0.381317l0,0l-0.986557,-0.093781l-0.139984,0.537628l0.886566,0.331268l0,0l-0.486572,2.650543l1.079865,2.769257l0.30658,4.594666l0,0l-0.706604,-0.331299l-1.133148,0.987671l1.673096,1.556519l0,0l0.233337,6.895142l-2.386337,-0.250061l1.146469,0.537567l-0.773209,-0.03125l-4.346161,-0.67511l-0.946518,0.493866l-1.126511,1.2565l0.113327,2.144165l-3.666183,4.563385l-0.999969,2.456696l1.366562,1.837891l4.412766,0.875153l1.566498,1.344025l-2.07309,-1.118958l-4.466125,-0.343811l-7.63237,2.275391l-2.972961,2.488037l-0.859894,5.444763l-0.926559,1.487793l-3.746155,2.187927l-2.859741,0.862701l-0.586563,0.731323l-3.239563,-0.787598l-2.819656,-2.081665l0,0l2.452995,-3.500702l-1.313118,-2.312897l1.066467,-1.86911l-1.386444,-2.069214l1.219849,-1.419006l0.399933,-1.831604l1.786461,-3.050598l-0.579918,-0.812622l-2.552994,-0.106323l1.566498,-8.114044l-1.386528,-1.550293l-2.926315,1.719055l-1.859772,-0.987701l-0.02668,-3.875732l0.973267,-2.506714l-0.973267,-1.169006l-2.492973,-0.656403l1.439796,-1.669037l-0.233337,-2.081665l-4.252747,0.306274l1.719711,-1.819l-2.47303,-1.394073l-1.773071,-0.350098l0.306671,-1.512756l1.553101,-0.212555l0.886581,-0.875153l0,0l0.939857,-0.55014l1.766495,1.49408l2.819595,0.156281l0.833214,-2.681824l4.919426,-0.168701l2.433044,0.681335l0.353226,-1.819122l2.419724,-0.762665l1.586517,-1.919128l-0.493286,-1.106415l-3.306229,-0.243805l0.013306,-0.900208l1.866425,-1.300201l0.279984,-1.706604l-0.446655,0.231293l-0.273254,-1.200226l0.519897,-1.356476l1.513123,0.087463l0.966553,-2.175446l1.333145,-0.600098l0.500031,0.73761l4.186066,0.781433l0,0l0.366608,1.031494l2.506409,0.86264l2.146423,-2.500488l0.006638,-2.369202l1.593094,-0.993927l2.179749,-0.26886l2.83963,0.862701l4.806046,-2.156647l-0.073242,-1.200256l-0.793213,-0.225037l1.199814,-0.393829l3.719528,1.831635l4.012848,-4.138306l1.019897,0.143738zm-6.545929,19.26001l0,0l-0.106598,0.831421l-0.206726,-0.712677l0.313324,-0.118744zm-0.253235,2.406708l0,0l-0.260025,-0.42511l0.71991,0.412598l-0.459885,0.012512z" class="land" id="svg_42"/>
    <path d="m331.020233,167.587402l0.300079,3.269409l-0.813263,3.819489l0,0l-1.279877,-0.243805l-1.946442,1.268982l-1.013123,-1.137695l0.106598,3.088074l-2.499634,2.687988l0.473236,3.081909l-1.273102,1.325226l-1.553284,0.693909l-0.67981,-0.568878l-1.859894,-3.83197l-0.633179,0.593842l0.273254,2.069153l-0.586578,-0.156281l-1.393158,-5.144714l-1.273132,-2.500519l-0.066681,-1.312744l0.786591,-0.418854l0.739929,-2.969299l1.553101,-1.906647l2.246429,0.256317l2.812927,-0.94397l1.786438,0.043762l0.526642,-2.462952l0.346588,-0.306335l0.466614,0.406372l1.866394,-0.975189l0.326721,-1.912872l0,0l1.466461,1.112732l0.213165,1.375214l-0.666443,1.750397l1.246429,-0.050049z" class="land" id="svg_41"/>
    <path d="m225.620132,146.033203l0,0l-0.146637,0.593872l0,0l-1.426498,0.593872l-1.12648,-0.368805l0,0l-4.146179,-0.200043l0,0l-1.319839,1.500244l0,0l-2.566391,1.969147l0,0l-0.78656,0.837646l-3.959457,1.406525l0,0l-0.613327,0.325073l0,0l-0.873123,0.962708l-0.639999,2.431702l0,0l2.453049,4.232086l0,0l0.926559,1.875336l0,0l-0.366592,1.087769l0,0l-1.619781,0.787628l0,0l0.199936,1.006439l0,0l0.506592,0.693909l-1.153168,2.750549l-0.446655,0.793884l-2.093048,0.881409l-0.159943,1.03775l0,0l-0.253357,0.556305l0,0l-2.766312,0.568909l0,0l-1.93309,-0.78772l0,0l-0.673264,-0.475037l0,0l-1.979736,-2.731812l0,0l0.753235,0.075043l0,0l0.120041,-2.825562l0,0l-0.593292,-2.631775l0,0l0.833206,-0.80014l-0.879852,-1.075226l-0.713181,0.043793l0,0l-1.513184,0.406281l-0.839951,-0.393799l0,0l-0.926483,-0.39386l0.006577,1.756561l0,0l-1.086502,-0.156219l0,0l0.079971,-0.718903l-1.939743,-1.987915l-3.106308,-0.625092l-0.673187,-2.319183l-1.766418,0.250031l-2.179733,-0.956421l-0.260025,-1.762878l-1.259766,0.006287l-0.579987,0.725128l0,0l-2.479736,-0.350067l-0.699875,3.406921l-1.426498,0.250031l-0.673264,-0.637634l-2.013077,0.006287l0,0l-1.513031,0.087494l0,0l1.333069,-3.213104l0,0l-2.59964,0.575104l1.013184,1.037689l-0.673264,0l0,0l-2.519653,-0.068756l-1.339798,0.806396l0,0l-1.679871,0.168793l0,0l-0.753174,-0.956421l2.319656,-1.800354l-1.479797,-2.550507l0,0l-0.519882,-0.462616l-3.099655,0.97522l-2.59964,1.937866l0,0l-0.246704,1.68158l-3.526199,-1.181488l-0.999878,1.125214l-0.759888,-0.074982l-0.839951,-0.718903l1.006622,-1.28775l-1.686447,-1.437775l-1.006531,0.162537l0,0l0.086624,0.806396l0,0l1.093155,0.556335l0,0l-0.413254,1.362793l0,0l-1.846451,0.331299l-1.679794,-0.475098l-0.42662,-2.162903l0,0l-1.839752,1.850342l-0.513245,-2.400452l0.333267,-0.725159l1.346466,-0.331299l-0.259964,-1.762848l-0.839859,-0.400085l-1.419846,2.094177l0,0l-0.333282,0.887665l-0.506592,-0.081268l-0.753235,-0.518829l0.499939,-0.525085l0,0l-0.333328,-0.23761l0,0l-2.093048,1.537811l1.773148,5.363556l0,0l1.099808,1.356506l0.006668,3.275635l0.593292,0.556366l1.506454,-0.568878l0.333359,0.400085l0,0l1.099808,2.863037l-2.672958,2.563049l0,0l-2.186386,-1.025208l0,0l-2.099777,-1.506561l0,0l-0.753235,0.881439l-0.926559,-0.393829l0,0l-0.0867,-0.637604l-1.766418,-0.762665l0.359955,-0.437592l0,0l-0.099991,-3.013062l0,0l-0.926559,-2.156677l0,0l0.733276,-0.650146l0,0l1.426483,-0.968933l0.833221,-2.081665l0,0l0.246643,-1.043945l0,0l-1.433151,-2.725525l2.17308,-2.581757l1.926361,-0.006256l0,0l3.599609,-3.400635l1.166458,-3.069336l0,0l-0.086624,-1.456543l2.006424,-1.869141l-0.006668,-2.831772l0,0l-1.786438,-2.875595l0,0l-3.219604,-2.019135l0,0l-1.719772,0.081253l0,0l-1.206543,0.21254l0,0l-2.059708,-0.843903l0,0l-1.393173,-0.456345l0,0l-0.853241,0.431351l0,0l0.260025,-0.631393l0,0l0.226608,-0.725128l0,0l-1.74646,-0.081284l0,0l-1.713135,0.7314l-2.186386,-0.362534l0,0l-1.533157,0.168762l0,0l-3.859528,2.250443l0,0l0.093346,-1.844116l4.092796,-1.581573l-0.039993,-0.531342l-2.399689,-0.156296l-0.953247,-0.687622l0.400024,-0.287552l0,0l1.806396,-1.056473l0,0l0.039993,-1.037689l-2.966316,-2.212921l-1.899765,-5.126007l0.166679,-1.425278l0,0l2.559708,-2.100403l-0.673264,-1.68782l0.80661,-2.187927l-0.419968,-1.937897l-1.879807,-1.687805l0,0l-1.486435,-1.706573l-0.866547,-3.238129l0,0l0.139908,-2.025391l-0.866547,-1.856644l-0.059929,-10.083176l0,0l0.599869,-0.087555l0.400002,-2.056641l0,0l2.286316,-2.194153l0,0l2.173096,-1.412796l0.706512,-1.86911l0,0l1.199905,0.975204l3.04628,0.981415l-1.426498,0.468842l-0.746521,2.725525l-1.066544,1.150238l0.713242,3.269379l2.799637,-0.425079l-0.193344,1.481537l1.773148,0.768906l0.553238,-1.319016l0.946579,-0.212555l0.633286,-1.100204l2.412994,-0.425064l1.893112,2.331696l5.372665,3.306885l-2.17308,1.262726l0.953217,1.562805l1.026581,0.381348l0.153305,0.843918l2.886246,-0.081268l0.513321,1.644058l3.752808,1.344025l0.513321,0.887695l5.645905,-0.08754l-0.15329,1.262741l0.706589,-0.168793l1.226501,1.131485l1.38652,-0.037491l0.9599,-1.544067l0,0l4.279434,2.906799l0.946518,-1.387756l5.319351,3.481934l3.599518,1.143982l1.433151,2.938049l1.039871,-0.031219l7.20575,4.500854l0.933228,-0.843933l1.013245,-0.075012l5.279312,3.475677l3.712891,-0.487579l0.899887,2.994324l5.605927,0.812653l1.826492,1.587814l0.913193,-0.556351l0.566605,-1.406525l2.592987,0.056274l3.426254,1.681564l-0.179962,0.36882l0,0l1.853119,1.619064l1.16655,4.275833l0,0l1.153107,1.081467l0,0l1.21991,-0.600128l0.29985,1.206482l0,0l2.046494,1.794113l0,0l0.033264,0.86264l-3.419556,-0.231277l-0.773178,0.081268l-0.199997,0.587601l0,0l-0.279922,0.687622l-0.753235,-0.018738l0,0l-0.266678,-0.118774l0,0l-0.899872,0.168793l-0.046646,0.706375l0,0l3.606171,1.706573l0.006653,1.444046l0,0l-2.053055,0.73764l0.280045,1.075195l1.579727,1.981659l4.579453,2.094177l1.186493,1.212708z" class="land" id="svg_40"/>
    <path d="m164.887787,102.518494l0,0l-0.9599,1.544067l-1.38652,0.037491l-1.226501,-1.131485l-0.706589,0.168793l0.15329,-1.262741l-5.645905,0.08754l-0.513321,-0.887695l-3.752808,-1.344025l-0.513321,-1.644058l-2.886246,0.081268l-0.153305,-0.843918l-1.026581,-0.381348l-0.953217,-1.562805l2.17308,-1.262726l-5.372665,-3.306885l-1.893112,-2.331696l-2.412994,0.425064l-0.633286,1.100204l-0.946579,0.212555l-0.553238,1.319016l-1.773148,-0.768906l0.193344,-1.481537l-2.799637,0.425079l-0.713242,-3.269379l1.066544,-1.150238l0.746521,-2.725525l1.426498,-0.468842l-3.04628,-0.981415l-1.199905,-0.975204l0,0l0.093369,-0.30632l0,0l-0.006668,-0.681381l0,0l-0.226608,-0.525101l3.479553,-1.337738l-1.14653,-3.381927l0.439941,-3.06308l2.11972,-2.838043l1.739807,-0.187561l3.592865,-1.74408l2.333023,0.831421l4.372772,0.212524l0.686661,1.400299l1.873077,-0.062531l-1.066544,-2.362961l0,0l0.146637,-1.062729l0.906601,-0.481323l0.773193,-1.587814l1.106537,0.468857l1.633087,2.125397l-0.199951,0.637619l0.899963,1.56282l1.126419,0.462585l0.426697,1.200226l1.206467,-0.018753l1.173126,1.425262l2.119781,-0.943924l1.546539,0.412613l0.819901,1.287735l1.766449,0.718887l0.806519,0.956436l0.739929,-0.493866l0.913193,0.725159l-0.593292,1.400238l0.480042,1.34404l2.526245,0.712631l1.726501,1.137726l0.786575,-0.487595l3.106216,2.475479l2.846359,0.987701l0.079971,0.718887l-2.066345,0.937683l-2.67305,2.512985l-1.139847,0.306305l-0.793304,1.544037l-2.21965,1.537811l0.453293,2.037903l-2.32637,2.619263l0.926483,1.669083l-0.246643,1.512787l-3.14621,4.1008l0.046631,1.375259l1.33989,0.587616z" class="land" id="svg_39"/>
    <path d="m282.426361,126.235611l1.48645,0.781387l0.439972,1.694092l1.973114,0.756393l1.19986,1.412766l3.299591,-0.512619l3.032898,0.956467l0.739929,0.425095l0.006653,0.675125l2.05304,0.125015l0,0l0.079987,5.344803l-2.046387,2.025391l0,0l-0.653259,-0.537613l-0.539917,1.062714l0.553314,1.187729l-0.73999,0.756378l-3.119537,-0.131256l-2.526367,-1.831619l-0.879852,-3.294388l-1.699921,-0.818909l-0.319916,1.212723l1.653137,1.181519l-0.319885,0.562607l-2.233093,-0.068771l-1.659851,-0.756393l-0.753235,-1.806625l-3.426117,-1.912857l-0.233337,-1.025192l-1.059967,2.044113l0.286682,0.406342l0.206696,-0.443832l1.50647,0.362579l0.566589,1.325256l-1.733185,0.600113l-0.653198,1.494049l-2.266357,0.987686l-1.193176,3.33815l0.666595,1.83786l1.773071,-0.293793l2.406372,2.081665l0.059967,0.987671l1.406494,1.200256l3.326202,-0.081299l0.593292,2.062927l2.266418,1.050171l-1.033203,1.77533l-6.545868,-0.337524l0.099945,1.606567l-0.879852,1.90033l-0.799866,1.000244l-1.626526,-1.156494l-1.079834,0.487579l0.35321,0.956451l-1.679718,2.294189l1.186493,2.506775l5.15271,2.637939l2.666321,0.168823l0.679993,1.2565l-0.69989,0.950165l0.006592,0.925232l0.733276,0.581329l-0.273346,1.712799l-1.819794,0.831451l-0.493256,2.950562l2.613068,2.469238l0.399963,-0.325073l-1.013306,2.525513l0.200043,0.887665l3.499512,0.568848l-1.479736,1.581543l-0.160004,1.719116l0.906525,1.368988l0.87323,7.526459l1.379822,2.494263l-0.779938,0.750122l0.286743,2.150421l-0.71991,0.393829l1.079773,3.825745l-1.019836,0.331299l-2.153076,-0.381287l-1.013245,1.012695l-0.906525,-0.100037l-0.213318,-3.850769l0.946564,-2.231628l-0.719971,-0.781433l-0.39325,1.769104l-0.819916,-0.39386l0.713226,-3.238098l-0.866516,1.362732l-0.759827,3.844482l0.106567,0.687683l0.853241,0.225006l-0.766541,2.644287l-1.013245,0.537598l-0.199951,-0.456329l0.579926,-1.400269l-0.346558,-4.013306l-0.679993,4.625916l-0.653259,0.381317l-1.319916,-0.368805l-0.146606,-2.275452l-0.466553,-0.281311l0.593231,3.150635l-0.646606,0.250031l-1.053101,-1.769073l0.353241,-1.569092l-0.859894,-2.287903l0.93988,-1.319031l-0.179993,-1.35025l-2.626312,-1.150238l-1.386536,-2.550476l1.039886,2.719269l2.03302,0.618866l0.493286,1.218994l-4.612701,5.094727l-2.059692,1.00647l-2.70639,0.468811l0,0l-0.426575,-2.244171l-2.406372,-0.900177l-0.746582,-0.825134l0.113312,-1.018982l-1.073212,-0.262573l-0.87326,1.456543l-0.699799,0l-0.579987,-0.70636l0.233276,-1.74408l-4.092804,-1.456573l-0.193283,-0.518829l0,0l1.986435,-1.03772l0.813202,0.118835l0.219971,-0.512634l-1.71315,-3.638214l-2.126358,-1.594086l0,0l-1.519806,-0.450073l0,0l-1.119888,-0.931396l0,0l0.44664,-1.744141l1.206451,-0.906433l-3.352844,-0.206268l0,0l-1.806503,-0.281281l0,0l-2.179718,-1.919128l-1.033157,-0.03125l0,0l-0.993225,-0.112549l-0.613327,-1.168945l0,0l1.506561,-3.013092l1.433136,-1.494019l1.259827,-0.025055l0.200027,1.406555l2.033096,1.006409l0.906509,-0.856445l0,0l0.319992,-1.31897l0,0l2.586319,-1.662781l0,0l1.906494,-0.375122l0,0l0.559799,0.531372l1.059952,-0.225037l-0.113434,-1.275208l0,0l-0.066528,-0.500122l0,0l1.253113,-0.97522l0.993225,0.356323l0,0l0.266602,0.106293l0,0l1.646545,0.750153l1.673065,-0.525085l0.626526,-1.087738l0,0l-0.433167,-1.269012l0,0l-0.286713,-0.575104l0,0l0.926544,0.006256l0,0l2.15979,0.606384l0,0l0.28656,-1.55658l0,0l2.733063,-1.093994l0,0l-0.479919,-0.781372l1.086426,-0.893921l2.059845,-3.969513l0,0l0.533173,-0.962677l-0.693176,-5.163513l0,0l-0.253326,-0.368835l0,0l-0.999847,-0.906433l0.026672,-3.919495l2.093018,-2.087891l0,0l1.273224,0.368774l0.226624,-0.500092l0,0l0.113281,-2.125397l-3.112946,-2.631775l0,-1.937866l6.132629,-4.713425l-1.139954,-2.469223l-1.266388,0.037506l1.266388,-3.281891l-0.279968,-1.662827l-2.453003,-3.3694l0.213318,-0.562622l0,0l5.832611,1.200256l2.086487,-1.487793l2.206329,0.293808zm-8.038971,76.002274l-0.453369,1.450287l-1.11319,-0.212585l1.080017,-3.275574l0.486542,2.037872z" class="land" id="svg_38"/>
   </g>
  </g>
 </g>
</svg>